#N canvas 149 98 1357 782 10;
#N canvas 243 97 526 591 alarm 0;
#X obj -85 288 s~ \$0-dir;
#X obj -92 364 revxp 18 61 74 12 55 41 72 82 0.42 93 107 119 121 111
127 33 49 55 61 79 87 99 5 18 24 0.5 0.5;
#X obj -92 312 hip~ 40;
#N canvas 156 215 402 433 multi-tone-alarm 0;
#X obj 27 186 *~;
#X obj 56 207 *~;
#X obj -1 166 *~;
#N canvas 0 22 255 294 timebase 0;
#X msg 6 77 1 \$1;
#X msg 49 77 0 0;
#X obj 49 52 del;
#X obj 6 113 line~;
#X obj 6 6 inlet risetime;
#X obj 6 189 outlet~ linecontrol;
#X obj 22 139 inlet scale;
#X msg 92 76 0;
#X obj 6 28 trigger f f b;
#X obj 6 163 *~;
#X connect 0 0 3 0;
#X connect 1 0 3 0;
#X connect 2 0 1 0;
#X connect 3 0 9 0;
#X connect 4 0 8 0;
#X connect 6 0 9 1;
#X connect 7 0 3 0;
#X connect 8 0 0 0;
#X connect 8 1 2 0;
#X connect 8 2 7 0;
#X connect 9 0 5 0;
#X restore 15 59 pd timebase;
#X obj 56 252 *~ 0.25;
#N canvas 11 420 328 247 4phase-osc 0;
#X obj 4 85 clip~ 0 1;
#X obj 81 84 clip~ 1 2;
#X obj 155 83 clip~ 2 3;
#X obj 80 107 -~ 1;
#X obj 156 106 -~ 2;
#X obj 79 131 *~ 0.5;
#X obj 79 154 -~ 0.25;
#X obj 79 176 cos~;
#X obj 156 129 *~ 0.5;
#X obj 156 152 -~ 0.25;
#X obj 156 174 cos~;
#X obj 3 134 *~ 0.5;
#X obj 3 157 -~ 0.25;
#X obj 3 179 cos~;
#X obj 2 201 outlet~;
#X obj 80 199 outlet~;
#X obj 156 197 outlet~;
#X obj 124 5 inlet~ run;
#X obj 124 27 wrap~;
#X obj 226 129 *~ 0.5;
#X obj 226 152 -~ 0.25;
#X obj 226 174 cos~;
#X obj 226 197 outlet~;
#X obj 124 49 *~ 4;
#X obj 225 83 clip~ 3 4;
#X obj 226 106 -~ 3;
#X connect 0 0 11 0;
#X connect 1 0 3 0;
#X connect 2 0 4 0;
#X connect 3 0 5 0;
#X connect 4 0 8 0;
#X connect 5 0 6 0;
#X connect 6 0 7 0;
#X connect 7 0 15 0;
#X connect 8 0 9 0;
#X connect 9 0 10 0;
#X connect 10 0 16 0;
#X connect 11 0 12 0;
#X connect 12 0 13 0;
#X connect 13 0 14 0;
#X connect 17 0 18 0;
#X connect 18 0 23 0;
#X connect 19 0 20 0;
#X connect 20 0 21 0;
#X connect 21 0 22 0;
#X connect 23 0 0 0;
#X connect 23 0 1 0;
#X connect 23 0 2 0;
#X connect 23 0 24 0;
#X connect 24 0 25 0;
#X connect 25 0 19 0;
#X restore 15 80 pd 4phase-osc;
#X obj 85 217 *~;
#X obj 56 273 hip~ 50;
#X obj 65 24 unpack f f f f f f f;
#X obj 65 1 inlet;
#X obj 56 293 *~ 0.5;
#N canvas 0 22 218 139 cosc 0;
#X obj 8 91 cos~;
#X obj 8 71 +~;
#X obj 103 28 * 0.25;
#X obj 8 114 outlet~;
#X obj 9 49 osc~;
#X obj 9 6 inlet pitch;
#X obj 103 7 inlet spectrum;
#X connect 0 0 3 0;
#X connect 1 0 0 0;
#X connect 2 0 1 1;
#X connect 4 0 1 0;
#X connect 5 0 4 0;
#X connect 6 0 2 0;
#X restore 110 102 pd cosc;
#N canvas 0 22 253 185 cosc 0;
#X obj 8 125 cos~;
#X obj 8 105 +~;
#X obj 103 54 * 0.25;
#X obj 8 148 outlet~;
#X obj 9 83 osc~;
#X obj 9 6 inlet pitch;
#X obj 103 7 inlet spectrum;
#X connect 0 0 3 0;
#X connect 1 0 0 0;
#X connect 2 0 1 1;
#X connect 4 0 1 0;
#X connect 5 0 4 0;
#X connect 6 0 2 0;
#X restore 132 122 pd cosc;
#N canvas 0 22 253 185 cosc 0;
#X obj 8 125 cos~;
#X obj 8 105 +~;
#X obj 103 54 * 0.25;
#X obj 8 148 outlet~;
#X obj 9 83 osc~;
#X obj 9 6 inlet pitch;
#X obj 103 7 inlet spectrum;
#X connect 0 0 3 0;
#X connect 1 0 0 0;
#X connect 2 0 1 1;
#X connect 4 0 1 0;
#X connect 5 0 4 0;
#X connect 6 0 2 0;
#X restore 155 142 pd cosc;
#N canvas 0 22 253 185 cosc 0;
#X obj 8 125 cos~;
#X obj 8 105 +~;
#X obj 103 54 * 0.25;
#X obj 8 148 outlet~;
#X obj 9 83 osc~;
#X obj 9 6 inlet pitch;
#X obj 103 7 inlet spectrum;
#X connect 0 0 3 0;
#X connect 1 0 0 0;
#X connect 2 0 1 1;
#X connect 4 0 1 0;
#X connect 5 0 4 0;
#X connect 6 0 2 0;
#X restore 178 162 pd cosc;
#X obj 56 327 outlet~;
#X connect 0 0 4 0;
#X connect 1 0 4 0;
#X connect 2 0 4 0;
#X connect 3 0 5 0;
#X connect 4 0 7 0;
#X connect 5 0 2 1;
#X connect 5 1 0 1;
#X connect 5 2 1 1;
#X connect 5 3 6 1;
#X connect 6 0 4 0;
#X connect 7 0 10 0;
#X connect 8 0 3 0;
#X connect 8 1 3 1;
#X connect 8 2 11 0;
#X connect 8 3 12 0;
#X connect 8 4 13 0;
#X connect 8 5 14 0;
#X connect 8 6 14 1;
#X connect 8 6 13 1;
#X connect 8 6 12 1;
#X connect 8 6 11 1;
#X connect 9 0 8 0;
#X connect 10 0 15 0;
#X connect 11 0 2 0;
#X connect 12 0 0 0;
#X connect 13 0 1 0;
#X connect 14 0 6 0;
#X restore -92 236 pd multi-tone-alarm;
#X msg -92 210 634 61 1000 476 159 0 1;
#X obj -89 430 +~;
#X obj -89 403 r~ \$0-dir;
#X obj -89 455 outlet~;
#X obj -19 402 *~ 0.269;
#X obj -92 337 *~ 0.1;
#X obj -92 260 *~ 0.5;
#X obj -85 60 inlet;
#X obj -93 165 tgl 15 0 empty empty empty 17 7 0 10 -262144 -1 -1 0
1;
#X obj -92 187 metro 1000;
#X obj -116 140 once;
#X obj -116 88 select 1;
#X msg -116 113 1;
#X obj -55 88 select 0;
#X msg -55 112 0;
#X obj -69 139 once;
#X connect 1 0 8 0;
#X connect 2 0 9 0;
#X connect 3 0 10 0;
#X connect 4 0 3 0;
#X connect 5 0 7 0;
#X connect 6 0 5 0;
#X connect 8 0 5 1;
#X connect 9 0 1 0;
#X connect 10 0 0 0;
#X connect 10 0 2 0;
#X connect 11 0 15 0;
#X connect 11 0 17 0;
#X connect 12 0 13 0;
#X connect 13 0 4 0;
#X connect 14 0 12 0;
#X connect 15 0 16 0;
#X connect 16 0 14 0;
#X connect 16 0 19 1;
#X connect 17 0 18 0;
#X connect 18 0 14 1;
#X connect 18 0 19 0;
#X connect 19 0 12 0;
#X restore 605 149 pd alarm;
#X obj 13 99 bng 15 250 50 0 empty empty empty 17 7 0 10 -262144 -1
-1;
#N canvas 737 71 329 406 accessden 0;
#X obj 128 22 inlet;
#X obj 112 326 outlet~;
#N canvas 156 215 402 433 multi-tone-alarm 0;
#X obj 27 186 *~;
#X obj 56 207 *~;
#X obj -1 166 *~;
#N canvas 0 22 255 294 timebase 0;
#X msg 6 77 1 \$1;
#X msg 49 77 0 0;
#X obj 49 52 del;
#X obj 6 113 line~;
#X obj 6 6 inlet risetime;
#X obj 6 189 outlet~ linecontrol;
#X obj 22 139 inlet scale;
#X msg 92 76 0;
#X obj 6 28 trigger f f b;
#X obj 6 163 *~;
#X connect 0 0 3 0;
#X connect 1 0 3 0;
#X connect 2 0 1 0;
#X connect 3 0 9 0;
#X connect 4 0 8 0;
#X connect 6 0 9 1;
#X connect 7 0 3 0;
#X connect 8 0 0 0;
#X connect 8 1 2 0;
#X connect 8 2 7 0;
#X connect 9 0 5 0;
#X restore 15 59 pd timebase;
#X obj 56 252 *~ 0.25;
#N canvas 11 420 328 247 4phase-osc 0;
#X obj 4 85 clip~ 0 1;
#X obj 81 84 clip~ 1 2;
#X obj 155 83 clip~ 2 3;
#X obj 80 107 -~ 1;
#X obj 156 106 -~ 2;
#X obj 79 131 *~ 0.5;
#X obj 79 154 -~ 0.25;
#X obj 79 176 cos~;
#X obj 156 129 *~ 0.5;
#X obj 156 152 -~ 0.25;
#X obj 156 174 cos~;
#X obj 3 134 *~ 0.5;
#X obj 3 157 -~ 0.25;
#X obj 3 179 cos~;
#X obj 2 201 outlet~;
#X obj 80 199 outlet~;
#X obj 156 197 outlet~;
#X obj 124 5 inlet~ run;
#X obj 124 27 wrap~;
#X obj 226 129 *~ 0.5;
#X obj 226 152 -~ 0.25;
#X obj 226 174 cos~;
#X obj 226 197 outlet~;
#X obj 124 49 *~ 4;
#X obj 225 83 clip~ 3 4;
#X obj 226 106 -~ 3;
#X connect 0 0 11 0;
#X connect 1 0 3 0;
#X connect 2 0 4 0;
#X connect 3 0 5 0;
#X connect 4 0 8 0;
#X connect 5 0 6 0;
#X connect 6 0 7 0;
#X connect 7 0 15 0;
#X connect 8 0 9 0;
#X connect 9 0 10 0;
#X connect 10 0 16 0;
#X connect 11 0 12 0;
#X connect 12 0 13 0;
#X connect 13 0 14 0;
#X connect 17 0 18 0;
#X connect 18 0 23 0;
#X connect 19 0 20 0;
#X connect 20 0 21 0;
#X connect 21 0 22 0;
#X connect 23 0 0 0;
#X connect 23 0 1 0;
#X connect 23 0 2 0;
#X connect 23 0 24 0;
#X connect 24 0 25 0;
#X connect 25 0 19 0;
#X restore 15 80 pd 4phase-osc;
#X obj 85 217 *~;
#X obj 56 273 hip~ 50;
#X obj 65 24 unpack f f f f f f f;
#X obj 65 1 inlet;
#X obj 56 293 *~ 0.5;
#N canvas 0 22 218 139 cosc 0;
#X obj 8 91 cos~;
#X obj 8 71 +~;
#X obj 103 28 * 0.25;
#X obj 8 114 outlet~;
#X obj 9 49 osc~;
#X obj 9 6 inlet pitch;
#X obj 103 7 inlet spectrum;
#X connect 0 0 3 0;
#X connect 1 0 0 0;
#X connect 2 0 1 1;
#X connect 4 0 1 0;
#X connect 5 0 4 0;
#X connect 6 0 2 0;
#X restore 110 102 pd cosc;
#N canvas 0 22 253 185 cosc 0;
#X obj 8 125 cos~;
#X obj 8 105 +~;
#X obj 103 54 * 0.25;
#X obj 8 148 outlet~;
#X obj 9 83 osc~;
#X obj 9 6 inlet pitch;
#X obj 103 7 inlet spectrum;
#X connect 0 0 3 0;
#X connect 1 0 0 0;
#X connect 2 0 1 1;
#X connect 4 0 1 0;
#X connect 5 0 4 0;
#X connect 6 0 2 0;
#X restore 132 122 pd cosc;
#N canvas 0 22 253 185 cosc 0;
#X obj 8 125 cos~;
#X obj 8 105 +~;
#X obj 103 54 * 0.25;
#X obj 8 148 outlet~;
#X obj 9 83 osc~;
#X obj 9 6 inlet pitch;
#X obj 103 7 inlet spectrum;
#X connect 0 0 3 0;
#X connect 1 0 0 0;
#X connect 2 0 1 1;
#X connect 4 0 1 0;
#X connect 5 0 4 0;
#X connect 6 0 2 0;
#X restore 155 142 pd cosc;
#N canvas 0 22 253 185 cosc 0;
#X obj 8 125 cos~;
#X obj 8 105 +~;
#X obj 103 54 * 0.25;
#X obj 8 148 outlet~;
#X obj 9 83 osc~;
#X obj 9 6 inlet pitch;
#X obj 103 7 inlet spectrum;
#X connect 0 0 3 0;
#X connect 1 0 0 0;
#X connect 2 0 1 1;
#X connect 4 0 1 0;
#X connect 5 0 4 0;
#X connect 6 0 2 0;
#X restore 178 162 pd cosc;
#X obj 56 327 outlet~;
#X connect 0 0 4 0;
#X connect 1 0 4 0;
#X connect 2 0 4 0;
#X connect 3 0 5 0;
#X connect 4 0 7 0;
#X connect 5 0 2 1;
#X connect 5 1 0 1;
#X connect 5 2 1 1;
#X connect 5 3 6 1;
#X connect 6 0 4 0;
#X connect 7 0 10 0;
#X connect 8 0 3 0;
#X connect 8 1 3 1;
#X connect 8 2 11 0;
#X connect 8 3 12 0;
#X connect 8 4 13 0;
#X connect 8 5 14 0;
#X connect 8 6 14 1;
#X connect 8 6 13 1;
#X connect 8 6 12 1;
#X connect 8 6 11 1;
#X connect 9 0 8 0;
#X connect 10 0 15 0;
#X connect 11 0 2 0;
#X connect 12 0 0 0;
#X connect 13 0 1 0;
#X connect 14 0 6 0;
#X restore 112 241 pd multi-tone-alarm;
#X msg 103 201 714 74 1000 0 1000 0 1;
#X obj 129 52 bng 15 250 50 0 empty empty empty 17 7 0 10 -262144 -1
-1;
#X obj 140 134 bng 15 250 50 0 empty empty empty 17 7 0 10 -262144
-1 -1;
#X obj 140 95 delay 400;
#X msg 141 170 634 61 900 476 159 0 1;
#X connect 0 0 4 0;
#X connect 2 0 1 0;
#X connect 3 0 2 0;
#X connect 4 0 3 0;
#X connect 4 0 6 0;
#X connect 5 0 7 0;
#X connect 6 0 5 0;
#X connect 7 0 2 0;
#X restore 13 141 pd accessden;
#N canvas 295 23 734 619 hummmm 0;
#X obj 250 241 inlet;
#X obj 65 412 outlet~;
#X obj 35 303 *~;
#X obj 35 225 osc~ 90;
#X obj 84 317 *~;
#X obj 84 267 osc~ 80;
#X obj 91 291 osc~ 0.4;
#X obj 48 246 osc~ 0.4;
#X obj 51 341 *~ 0.2;
#X obj 200 166 noise~;
#X obj 113 177 phasor~ 100.2;
#X obj 105 157 phasor~ 99.8;
#X obj 199 293 *~;
#X obj 200 233 *~;
#X obj 200 207 lop~ 2;
#X obj 200 186 lop~ 2;
#X obj 200 261 *~ 500;
#X obj 104 202 -~ 1;
#X obj 151 319 comb1 80 0.2;
#X obj 151 293 +~ 20;
#X obj 105 229 clip~ -0.5 0.5;
#X obj 151 345 *~ 0.4;
#X obj 226 436 hsl 128 15 0 1 0 0 empty empty empty -2 -8 0 10 -262144
-1 -1 0 1;
#X obj 65 374 *~;
#X obj 191 369 loadbang;
#X msg 191 397 0;
#X obj 250 267 tgl 15 0 empty empty empty 17 7 0 10 -262144 -1 -1 0
1;
#X floatatom 250 290 5 0 0 0 - - -;
#X obj 309 324 select 1;
#X obj 250 323 select 0;
#X obj 250 401 line;
#X msg 309 368 1 1000;
#X msg 250 367 0 1000;
#X connect 0 0 26 0;
#X connect 2 0 8 0;
#X connect 3 0 2 0;
#X connect 4 0 8 0;
#X connect 5 0 4 0;
#X connect 6 0 4 1;
#X connect 7 0 2 1;
#X connect 8 0 23 0;
#X connect 9 0 15 0;
#X connect 10 0 17 0;
#X connect 11 0 17 0;
#X connect 12 0 18 1;
#X connect 13 0 16 0;
#X connect 14 0 13 0;
#X connect 14 0 13 1;
#X connect 15 0 14 0;
#X connect 16 0 12 1;
#X connect 16 0 19 0;
#X connect 17 0 20 0;
#X connect 18 0 21 0;
#X connect 19 0 18 0;
#X connect 20 0 12 0;
#X connect 21 0 23 0;
#X connect 22 0 23 1;
#X connect 23 0 1 0;
#X connect 24 0 25 0;
#X connect 25 0 22 0;
#X connect 26 0 27 0;
#X connect 27 0 28 0;
#X connect 27 0 29 0;
#X connect 28 0 31 0;
#X connect 29 0 32 0;
#X connect 30 0 22 0;
#X connect 31 0 30 0;
#X connect 32 0 30 0;
#X restore 699 144 pd hummmm;
#N canvas 399 77 489 472 cardpickup 0;
#X obj 96 43 inlet;
#X obj 96 79 bng 15 250 50 0 empty empty empty 17 7 0 10 -262144 -1
-1;
#X obj 188 124 bng 15 250 50 0 empty empty empty 17 7 0 10 -262144
-1 -1;
#X msg 15 177 1336 391;
#X obj 55 302 +~;
#X obj 56 333 *~;
#X obj 56 356 hip~ 100;
#X obj 15 220 unpack f f;
#X obj 6 253 osc~ 1336;
#X obj 72 252 osc~ 391;
#X obj 162 230 line~;
#X msg 225 175 1 1;
#X msg 162 195 0 1;
#X obj 56 393 *~ 0.1;
#X obj 56 426 outlet~;
#X obj 162 175 del 200;
#X obj 187 95 delay 100;
#X msg 86 176 2500 900;
#X connect 0 0 1 0;
#X connect 1 0 3 0;
#X connect 1 0 11 0;
#X connect 1 0 15 0;
#X connect 1 0 16 0;
#X connect 2 0 17 0;
#X connect 2 0 11 0;
#X connect 2 0 15 0;
#X connect 3 0 7 0;
#X connect 4 0 5 0;
#X connect 5 0 6 0;
#X connect 6 0 13 0;
#X connect 7 0 8 0;
#X connect 7 1 9 0;
#X connect 8 0 4 0;
#X connect 9 0 4 1;
#X connect 10 0 5 1;
#X connect 11 0 10 0;
#X connect 12 0 10 0;
#X connect 13 0 14 0;
#X connect 15 0 12 0;
#X connect 16 0 2 0;
#X connect 17 0 7 0;
#X restore 107 143 pd cardpickup;
#X obj 107 96 bng 15 250 50 0 empty empty empty 17 7 0 10 -262144 -1
-1;
#X obj 1169 623 loadbang;
#N canvas 292 101 609 564 deactivation 0;
#X obj 94 77 inlet;
#X obj 35 459 outlet~;
#N canvas 156 215 402 433 multi-tone-alarm 0;
#X obj 27 186 *~;
#X obj 56 207 *~;
#X obj -1 166 *~;
#N canvas 0 22 255 294 timebase 0;
#X msg 6 77 1 \$1;
#X msg 49 77 0 0;
#X obj 49 52 del;
#X obj 6 113 line~;
#X obj 6 6 inlet risetime;
#X obj 6 189 outlet~ linecontrol;
#X obj 22 139 inlet scale;
#X msg 92 76 0;
#X obj 6 28 trigger f f b;
#X obj 6 163 *~;
#X connect 0 0 3 0;
#X connect 1 0 3 0;
#X connect 2 0 1 0;
#X connect 3 0 9 0;
#X connect 4 0 8 0;
#X connect 6 0 9 1;
#X connect 7 0 3 0;
#X connect 8 0 0 0;
#X connect 8 1 2 0;
#X connect 8 2 7 0;
#X connect 9 0 5 0;
#X restore 15 59 pd timebase;
#X obj 56 252 *~ 0.25;
#N canvas 11 420 328 247 4phase-osc 0;
#X obj 4 85 clip~ 0 1;
#X obj 81 84 clip~ 1 2;
#X obj 155 83 clip~ 2 3;
#X obj 80 107 -~ 1;
#X obj 156 106 -~ 2;
#X obj 79 131 *~ 0.5;
#X obj 79 154 -~ 0.25;
#X obj 79 176 cos~;
#X obj 156 129 *~ 0.5;
#X obj 156 152 -~ 0.25;
#X obj 156 174 cos~;
#X obj 3 134 *~ 0.5;
#X obj 3 157 -~ 0.25;
#X obj 3 179 cos~;
#X obj 2 201 outlet~;
#X obj 80 199 outlet~;
#X obj 156 197 outlet~;
#X obj 124 5 inlet~ run;
#X obj 124 27 wrap~;
#X obj 226 129 *~ 0.5;
#X obj 226 152 -~ 0.25;
#X obj 226 174 cos~;
#X obj 226 197 outlet~;
#X obj 124 49 *~ 4;
#X obj 225 83 clip~ 3 4;
#X obj 226 106 -~ 3;
#X connect 0 0 11 0;
#X connect 1 0 3 0;
#X connect 2 0 4 0;
#X connect 3 0 5 0;
#X connect 4 0 8 0;
#X connect 5 0 6 0;
#X connect 6 0 7 0;
#X connect 7 0 15 0;
#X connect 8 0 9 0;
#X connect 9 0 10 0;
#X connect 10 0 16 0;
#X connect 11 0 12 0;
#X connect 12 0 13 0;
#X connect 13 0 14 0;
#X connect 17 0 18 0;
#X connect 18 0 23 0;
#X connect 19 0 20 0;
#X connect 20 0 21 0;
#X connect 21 0 22 0;
#X connect 23 0 0 0;
#X connect 23 0 1 0;
#X connect 23 0 2 0;
#X connect 23 0 24 0;
#X connect 24 0 25 0;
#X connect 25 0 19 0;
#X restore 15 80 pd 4phase-osc;
#X obj 85 217 *~;
#X obj 56 273 hip~ 50;
#X obj 65 24 unpack f f f f f f f;
#X obj 65 1 inlet;
#X obj 56 293 *~ 0.5;
#N canvas 0 22 218 139 cosc 0;
#X obj 8 91 cos~;
#X obj 8 71 +~;
#X obj 103 28 * 0.25;
#X obj 8 114 outlet~;
#X obj 9 49 osc~;
#X obj 9 6 inlet pitch;
#X obj 103 7 inlet spectrum;
#X connect 0 0 3 0;
#X connect 1 0 0 0;
#X connect 2 0 1 1;
#X connect 4 0 1 0;
#X connect 5 0 4 0;
#X connect 6 0 2 0;
#X restore 110 102 pd cosc;
#N canvas 0 22 253 185 cosc 0;
#X obj 8 125 cos~;
#X obj 8 105 +~;
#X obj 103 54 * 0.25;
#X obj 8 148 outlet~;
#X obj 9 83 osc~;
#X obj 9 6 inlet pitch;
#X obj 103 7 inlet spectrum;
#X connect 0 0 3 0;
#X connect 1 0 0 0;
#X connect 2 0 1 1;
#X connect 4 0 1 0;
#X connect 5 0 4 0;
#X connect 6 0 2 0;
#X restore 132 122 pd cosc;
#N canvas 0 22 253 185 cosc 0;
#X obj 8 125 cos~;
#X obj 8 105 +~;
#X obj 103 54 * 0.25;
#X obj 8 148 outlet~;
#X obj 9 83 osc~;
#X obj 9 6 inlet pitch;
#X obj 103 7 inlet spectrum;
#X connect 0 0 3 0;
#X connect 1 0 0 0;
#X connect 2 0 1 1;
#X connect 4 0 1 0;
#X connect 5 0 4 0;
#X connect 6 0 2 0;
#X restore 155 142 pd cosc;
#N canvas 0 22 253 185 cosc 0;
#X obj 8 125 cos~;
#X obj 8 105 +~;
#X obj 103 54 * 0.25;
#X obj 8 148 outlet~;
#X obj 9 83 osc~;
#X obj 9 6 inlet pitch;
#X obj 103 7 inlet spectrum;
#X connect 0 0 3 0;
#X connect 1 0 0 0;
#X connect 2 0 1 1;
#X connect 4 0 1 0;
#X connect 5 0 4 0;
#X connect 6 0 2 0;
#X restore 178 162 pd cosc;
#X obj 56 327 outlet~;
#X connect 0 0 4 0;
#X connect 1 0 4 0;
#X connect 2 0 4 0;
#X connect 3 0 5 0;
#X connect 4 0 7 0;
#X connect 5 0 2 1;
#X connect 5 1 0 1;
#X connect 5 2 1 1;
#X connect 5 3 6 1;
#X connect 6 0 4 0;
#X connect 7 0 10 0;
#X connect 8 0 3 0;
#X connect 8 1 3 1;
#X connect 8 2 11 0;
#X connect 8 3 12 0;
#X connect 8 4 13 0;
#X connect 8 5 14 0;
#X connect 8 6 14 1;
#X connect 8 6 13 1;
#X connect 8 6 12 1;
#X connect 8 6 11 1;
#X connect 9 0 8 0;
#X connect 10 0 15 0;
#X connect 11 0 2 0;
#X connect 12 0 0 0;
#X connect 13 0 1 0;
#X connect 14 0 6 0;
#X restore 18 211 pd multi-tone-alarm;
#X msg 17 176 900 4 2000 2010 2000 2010 1;
#X obj 39 367 osc~;
#X obj 38 337 +~ 8;
#X obj 40 274 osc~ 200;
#X obj 39 305 *~ 150;
#X obj 94 105 bng 15 250 50 0 empty empty empty 17 7 0 10 -262144 -1
-1;
#X obj 145 199 bng 15 250 50 0 empty empty empty 17 7 0 10 -262144
-1 -1;
#X obj 103 317 line~;
#X msg 146 271 0 500;
#X msg 103 272 1 50;
#X obj 35 421 *~ 0.5;
#X obj 52 397 *~;
#X obj 40 245 line~;
#X msg 61 149 200;
#X msg 141 151 0 3000;
#X obj 146 233 delay 3000;
#X obj 141 125 delay 10;
#X connect 0 0 8 0;
#X connect 2 0 13 0;
#X connect 3 0 2 0;
#X connect 4 0 14 0;
#X connect 5 0 4 0;
#X connect 6 0 7 0;
#X connect 7 0 5 0;
#X connect 8 0 3 0;
#X connect 8 0 9 0;
#X connect 8 0 16 0;
#X connect 8 0 12 0;
#X connect 8 0 19 0;
#X connect 9 0 18 0;
#X connect 10 0 14 1;
#X connect 11 0 10 0;
#X connect 12 0 10 0;
#X connect 13 0 1 0;
#X connect 14 0 13 0;
#X connect 15 0 6 0;
#X connect 16 0 15 0;
#X connect 17 0 15 0;
#X connect 18 0 11 0;
#X connect 19 0 17 0;
#X restore 210 144 pd deactivation;
#X obj 210 97 bng 15 250 50 0 empty empty empty 17 7 0 10 -262144 -1
-1;
#X obj 322 93 bng 15 250 50 0 empty empty empty 17 7 0 10 -262144 -1
-1;
#N canvas 289 86 797 675 elevator 0;
#X obj 186 286 noise~;
#X obj 170 370 *~;
#X obj 154 214 sig~ 1;
#X obj 154 242 /~;
#X obj 203 192 *~;
#X obj 203 162 *~;
#X obj 154 394 +~;
#X obj 203 214 +~ 1;
#X obj 170 265 *~ 0.4;
#X obj 186 308 bp~ 700 1;
#X obj 17 81 phasor~;
#N canvas 5 22 292 361 rotor 0;
#N canvas 0 22 450 300 grapha 0;
#X obj 100 100 cnv 15 100 100 empty empty empty 20 12 0 14 -262144
-66577 0;
#N canvas 0 22 450 300 (subpatch) 0;
#X array A 100 float 0;
#X coords 0 1 99 -1 100 100 1;
#X restore 100 100 graph;
#X obj 289 155 inlet~;
#X obj 210 182 tabwrite~ A;
#X obj 222 110 metro 200;
#X obj 230 148 s b;
#X obj 221 86 tgl 15 0 empty empty empty 0 -6 0 8 -262144 -1 -1 0 1
;
#X connect 2 0 3 0;
#X connect 4 0 3 0;
#X connect 4 0 5 0;
#X connect 6 0 4 0;
#X coords 0 -1 1 1 100 100 1 100 100;
#X restore 4 260 pd grapha;
#X obj 117 227 *~;
#X obj 117 67 *~;
#X obj 117 135 +~;
#X obj 134 182 *~;
#X obj 133 110 sig~ 0.2;
#X obj 117 0 noise~;
#X obj 133 44 r brush-level;
#X obj 133 87 r rotor-level;
#X obj 117 22 bp~ 4000 1;
#X obj 133 204 *~;
#X obj 134 157 inlet~ drive;
#X obj 117 272 outlet~;
#N canvas 0 22 450 300 grapha 0;
#X obj 100 100 cnv 15 100 100 empty empty empty 20 12 0 14 -262144
-66577 0;
#N canvas 0 22 450 300 (subpatch) 0;
#X array B 100 float 0;
#X coords 0 1 99 -1 100 100 1;
#X restore 100 100 graph;
#X obj 289 155 inlet~;
#X obj 210 182 tabwrite~ B;
#X obj 210 156 r b;
#X connect 2 0 3 0;
#X connect 4 0 3 0;
#X coords 0 -1 1 1 100 100 1 100 100;
#X restore 189 259 pd grapha;
#X connect 1 0 12 0;
#X connect 1 0 13 0;
#X connect 2 0 3 0;
#X connect 3 0 1 0;
#X connect 3 0 0 0;
#X connect 4 0 10 0;
#X connect 4 0 10 1;
#X connect 5 0 3 1;
#X connect 6 0 9 0;
#X connect 7 0 2 1;
#X connect 8 0 5 0;
#X connect 9 0 2 0;
#X connect 10 0 1 1;
#X connect 11 0 4 0;
#X connect 11 0 4 1;
#X restore 17 214 pd rotor;
#N canvas 541 22 203 345 stator 0;
#X obj -1 96 sig~ 1;
#X obj 31 150 /~;
#X obj 47 123 +~ 1;
#X obj 47 96 *~;
#X obj 47 68 cos~;
#N canvas 0 22 450 300 grapha 0;
#X obj 100 100 cnv 15 100 100 empty empty empty 20 12 0 14 -262144
-66577 0;
#N canvas 0 22 450 300 (subpatch) 0;
#X array C 100 float 0;
#X coords 0 1 99 -1 100 100 1;
#X restore 100 100 graph;
#X obj 289 155 inlet~;
#X obj 210 156 r b;
#X obj 210 182 tabwrite~ C;
#X connect 2 0 4 0;
#X connect 3 0 4 0;
#X coords 0 -1 1 1 100 100 1 100 100;
#X restore 98 239 pd grapha;
#X obj 47 46 wrap~;
#X obj 30 172 -~ 0.5;
#X obj 47 22 *~ 2;
#X obj 48 -2 inlet~ drive;
#X obj 31 249 outlet~;
#X obj 31 222 *~;
#X obj 47 198 r stator-level;
#X connect 0 0 1 0;
#X connect 1 0 7 0;
#X connect 2 0 1 1;
#X connect 3 0 2 0;
#X connect 4 0 3 0;
#X connect 4 0 3 1;
#X connect 6 0 4 0;
#X connect 7 0 5 0;
#X connect 7 0 11 0;
#X connect 8 0 6 0;
#X connect 9 0 8 0;
#X connect 11 0 10 0;
#X connect 12 0 11 1;
#X restore 83 214 pd stator;
#X obj 18 240 +~;
#X obj 18 35 sig~;
#X obj 219 139 r fan-pulsewidth;
#X obj 19 283 *~;
#X obj 35 261 r motor-level;
#X obj 18 13 r main-speed;
#X obj 17 133 *~;
#X obj 33 109 r motor-ratio;
#X obj 17 156 wrap~;
#X obj 203 113 cos~;
#X obj 140 464 +~;
#X obj 155 437 *~;
#X obj 171 415 r fan-level;
#X obj 202 328 r fan-noise;
#X obj 186 349 *~;
#X obj 174 571 s~ fba;
#X obj 174 467 r~ fba;
#X obj 174 523 delread~ a 22;
#X obj 174 501 delwrite~ a 22;
#X obj 281 464 r~ fbb;
#X obj 309 568 s~ fbb;
#X obj 281 498 delwrite~ b 200;
#X obj 281 520 delread~ b 70;
#X obj 174 547 *~ 0.3;
#X msg 373 162 \; main-speed 22 \; motor-ratio 20 \; motor-level 0.2
\; brush-level 0.05 \; rotor-level 0.1 \; stator-level 0.3 \; fan-pulsewidth
4 \; fan-noise 0.2 \; fan-level 0.5;
#X obj 18 58 lop~ 0.1;
#X obj 372 37 inlet;
#X obj 372 78 bng 15 250 50 0 empty empty empty 17 7 0 10 -262144 -1
-1;
#X obj 281 605 outlet~;
#X obj 281 544 *~ 0.499;
#X obj 516 108 delay 10000;
#X msg 516 161 \; main-speed 0 \; motor-ratio 20 \; motor-level 0.2
\; brush-level 0.05 \; rotor-level 0.1 \; stator-level 0.3 \; fan-pulsewidth
4 \; fan-noise 0 \; fan-level 0;
#X connect 0 0 9 0;
#X connect 1 0 6 1;
#X connect 2 0 3 0;
#X connect 3 0 6 0;
#X connect 3 0 8 0;
#X connect 4 0 7 0;
#X connect 5 0 4 0;
#X connect 5 0 4 1;
#X connect 6 0 24 0;
#X connect 7 0 3 1;
#X connect 8 0 1 0;
#X connect 9 0 27 0;
#X connect 10 0 19 0;
#X connect 10 0 22 0;
#X connect 11 0 13 0;
#X connect 12 0 13 1;
#X connect 13 0 16 0;
#X connect 14 0 38 0;
#X connect 15 0 5 1;
#X connect 16 0 23 0;
#X connect 17 0 16 1;
#X connect 18 0 14 0;
#X connect 19 0 21 0;
#X connect 20 0 19 1;
#X connect 21 0 12 0;
#X connect 21 0 11 0;
#X connect 22 0 5 0;
#X connect 23 0 31 0;
#X connect 24 0 23 1;
#X connect 25 0 24 1;
#X connect 26 0 27 1;
#X connect 27 0 1 1;
#X connect 29 0 31 0;
#X connect 29 0 34 0;
#X connect 30 0 36 0;
#X connect 32 0 31 0;
#X connect 32 0 34 0;
#X connect 35 0 42 0;
#X connect 36 0 28 0;
#X connect 38 0 10 0;
#X connect 39 0 40 0;
#X connect 40 0 37 0;
#X connect 40 0 43 0;
#X connect 42 0 33 0;
#X connect 42 0 41 0;
#X connect 43 0 44 0;
#X restore 322 146 pd elevator;
#N canvas 279 110 322 444 laser 0;
#X obj 85 250 line~;
#X obj 85 272 osc~;
#X obj 85 149 + 1000;
#X floatatom 85 176 5 0 0 0 - - -;
#X obj 84 114 random 1500;
#X msg 85 210 \$1 0 \, 0 200;
#X obj 85 35 inlet;
#X obj 83 75 bng 15 250 50 0 empty empty empty 17 7 0 10 -262144 -1
-1;
#X obj 86 341 outlet~;
#X obj 86 293 *~ 0.15;
#X connect 0 0 1 0;
#X connect 1 0 9 0;
#X connect 2 0 3 0;
#X connect 3 0 5 0;
#X connect 4 0 2 0;
#X connect 5 0 0 0;
#X connect 6 0 7 0;
#X connect 7 0 4 0;
#X connect 9 0 8 0;
#X restore 411 143 pd laser;
#X obj 411 94 bng 15 250 50 0 empty empty empty 17 7 0 10 -262144 -1
-1;
#N canvas 780 35 705 724 steps 0;
#X obj 63 312 noise~;
#X obj 26 373 *~;
#X obj -29 177 bng 15 250 50 0 empty empty empty 17 7 0 10 -262144
-1 -1;
#X obj 7 329 vline~;
#X obj 62 343 hip~ 500;
#X obj -49 258 delay 20;
#X obj -7 205 random 100;
#X obj -7 232 + 45;
#X obj 103 200 random 100;
#X msg -37 288 0 0 0 \, 0.1 5 0 \, 0 50 5;
#X obj 50 671 outlet~;
#X obj -80 325 snare-wt~;
#X obj -46 18 inlet;
#X obj -50 394 *~ 0.1;
#X obj -44 130 tgl 15 0 empty empty empty 17 7 0 10 -262144 -1 -1 0
1;
#X obj -46 104 once;
#X obj -46 49 select 1;
#X msg -46 75 1;
#X obj 15 50 select 0;
#X msg 15 75 0;
#X obj 1 104 once;
#X obj 103 230 + 150;
#X obj -45 156 metro 300;
#X obj 246 40 revxp 18 61 74 12 5 4 7 8 0.42 9 10 11 12 11 12 3 4 5
61 79 87 99 5 18 24 0.5 0.5;
#X obj 50 626 catch~ signal;
#X obj 38 430 inlet;
#X obj 37 541 bng 15 250 50 0 empty empty empty 17 7 0 10 -262144 -1
-1;
#X obj 84 541 bng 15 250 50 0 empty empty empty 17 7 0 10 -262144 -1
-1;
#X msg 224 584 set signal;
#X msg -43 581 set signal;
#X obj 198 621 throw~ steprev;
#X msg 32 584 set signal1;
#X msg 123 582 set signal1;
#X obj 196 426 revxp 10 51 54 12 0 4 7 8 0.42 9 10 11 12 11;
#X obj 38 461 select 0;
#X obj 99 462 select 1;
#X obj -50 622 throw~ signal;
#X connect 0 0 4 0;
#X connect 1 0 13 0;
#X connect 2 0 5 0;
#X connect 2 0 6 0;
#X connect 2 0 8 0;
#X connect 2 0 11 0;
#X connect 3 0 1 1;
#X connect 4 0 1 0;
#X connect 5 0 9 0;
#X connect 6 0 7 0;
#X connect 7 0 5 1;
#X connect 8 0 21 0;
#X connect 9 0 3 0;
#X connect 9 0 11 0;
#X connect 11 0 13 0;
#X connect 12 0 16 0;
#X connect 12 0 18 0;
#X connect 13 0 33 0;
#X connect 13 0 36 0;
#X connect 14 0 22 0;
#X connect 15 0 14 0;
#X connect 16 0 17 0;
#X connect 17 0 15 0;
#X connect 17 0 20 1;
#X connect 18 0 19 0;
#X connect 19 0 15 1;
#X connect 19 0 20 0;
#X connect 20 0 14 0;
#X connect 21 0 4 1;
#X connect 22 0 2 0;
#X connect 24 0 10 0;
#X connect 25 0 34 0;
#X connect 25 0 35 0;
#X connect 26 0 29 0;
#X connect 26 0 32 0;
#X connect 27 0 31 0;
#X connect 27 0 28 0;
#X connect 28 0 30 0;
#X connect 29 0 36 0;
#X connect 31 0 36 0;
#X connect 32 0 30 0;
#X connect 33 0 30 0;
#X connect 34 0 26 0;
#X connect 35 0 27 0;
#X restore 492 174 pd steps;
#N canvas 7 32 1430 742 insects 0;
#N canvas 0 22 538 497 chirper 0;
#X obj 222 357 *~;
#X obj 222 260 cos~;
#X obj 222 238 +~ 0.25;
#X obj 222 282 clip~ 0 1;
#X obj 237 324 osc~ 12342;
#X obj 251 304 osc~ 5134;
#X obj 239 171 wrap~;
#X obj 223 214 +~;
#X obj 160 133 clip~ 0 1;
#X obj 160 170 wrap~;
#X obj 239 134 clip~ 1 4;
#X obj 205 94 *~ 44;
#X obj 204 71 phasor~ 0.8;
#X obj 222 381 *~ 0.05;
#X obj 221 431 *~;
#X obj 237 406 inlet~;
#X obj 220 458 outlet~;
#X connect 0 0 13 0;
#X connect 1 0 3 0;
#X connect 2 0 1 0;
#X connect 3 0 0 0;
#X connect 4 0 0 1;
#X connect 5 0 0 1;
#X connect 6 0 7 1;
#X connect 7 0 2 0;
#X connect 8 0 9 0;
#X connect 9 0 7 0;
#X connect 10 0 6 0;
#X connect 11 0 8 0;
#X connect 11 0 10 0;
#X connect 12 0 11 0;
#X connect 13 0 14 0;
#X connect 14 0 16 0;
#X connect 15 0 14 1;
#X restore 173 341 pd chirper;
#N canvas 0 22 772 704 mosquito 0;
#X obj 157 329 phasor~ 600;
#X obj 247 329 phasor~ 600;
#X obj 248 304 +~;
#X obj 264 276 osc~ 0.2;
#X obj 226 234 +~;
#X obj 289 98 noise~;
#X obj 158 358 >~ 0.97;
#X obj 248 358 >~ 0.97;
#X obj 289 120 lop~ 1;
#X obj 289 142 *~ 2000;
#X obj 214 554 *~;
#X obj 263 555 *~;
#X obj 237 488 sig~ 1;
#X obj 236 513 -~;
#X obj 226 143 lop~ 0.2;
#X obj 341 256 noise~;
#X obj 343 347 clip~ 0 1;
#X obj 343 323 *~ 1e+09;
#X obj 342 278 lop~ 0.2;
#X obj 343 300 lop~ 0.2;
#X obj 196 430 *~;
#X obj 314 203 lop~ 0.5;
#X obj 303 166 *~ 0.2;
#X obj 194 456 *~ 0.02;
#X obj 226 167 *~ 3000;
#X obj 226 189 +~ 600;
#X obj 159 384 bp~ 8000 12;
#X obj 250 387 bp~ 8000 12;
#X obj 214 587 *~;
#X obj 262 586 *~;
#X obj 300 553 inlet~;
#X obj 214 622 outlet~;
#X obj 265 622 outlet~;
#X connect 0 0 6 0;
#X connect 1 0 7 0;
#X connect 2 0 1 0;
#X connect 3 0 2 1;
#X connect 4 0 0 0;
#X connect 4 0 2 0;
#X connect 5 0 8 0;
#X connect 5 0 14 0;
#X connect 6 0 26 0;
#X connect 7 0 27 0;
#X connect 8 0 9 0;
#X connect 9 0 4 1;
#X connect 9 0 3 0;
#X connect 9 0 22 0;
#X connect 10 0 28 0;
#X connect 11 0 29 0;
#X connect 12 0 13 0;
#X connect 13 0 10 1;
#X connect 14 0 24 0;
#X connect 15 0 18 0;
#X connect 16 0 20 1;
#X connect 17 0 16 0;
#X connect 18 0 19 0;
#X connect 19 0 17 0;
#X connect 20 0 23 0;
#X connect 21 0 13 1;
#X connect 21 0 11 1;
#X connect 22 0 21 0;
#X connect 23 0 10 0;
#X connect 23 0 11 0;
#X connect 24 0 25 0;
#X connect 25 0 4 0;
#X connect 26 0 20 0;
#X connect 27 0 20 0;
#X connect 28 0 31 0;
#X connect 29 0 32 0;
#X connect 30 0 29 1;
#X connect 30 0 28 1;
#X restore 1215 423 pd mosquito;
#N canvas 0 22 632 558 rattler 0;
#X obj 121 158 sig~ 1;
#X obj 121 190 /~;
#X obj 174 167 +~ 1;
#X obj 175 141 *~;
#X obj 230 167 noise~;
#X obj 121 215 *~;
#X obj 121 309 *~;
#X obj 230 213 *~ 0.1;
#X obj 317 186 clip~ 0 1;
#X obj 121 342 *~ 0.2;
#X obj 316 163 *~ 3;
#X obj 317 211 *~ 1;
#X obj 175 112 *~ 6;
#X obj 317 140 osc~ 0.5;
#X obj 175 90 osc~ 10;
#X obj 230 189 bp~ 7000 13;
#X obj 121 241 bp~ 6000 16;
#X obj 122 390 *~;
#X obj 138 365 inlet~;
#X obj 121 415 outlet~;
#X connect 0 0 1 0;
#X connect 1 0 5 0;
#X connect 2 0 1 1;
#X connect 3 0 2 0;
#X connect 4 0 15 0;
#X connect 5 0 16 0;
#X connect 6 0 9 0;
#X connect 7 0 16 0;
#X connect 8 0 11 0;
#X connect 9 0 17 0;
#X connect 10 0 8 0;
#X connect 11 0 6 1;
#X connect 12 0 3 0;
#X connect 12 0 3 1;
#X connect 13 0 10 0;
#X connect 14 0 12 0;
#X connect 15 0 5 1;
#X connect 15 0 7 0;
#X connect 16 0 6 0;
#X connect 17 0 19 0;
#X connect 18 0 17 1;
#X restore 771 341 pd rattler;
#N canvas 0 22 519 413 critters2 0;
#X obj 93 226 *~;
#X obj 94 188 *~;
#X obj 94 152 *~;
#X obj 126 46 unpack 1 2 3 4;
#X obj 92 253 hip~ 20;
#X obj 95 107 cos~;
#X obj 158 106 cos~;
#X obj 233 105 cos~;
#X obj 303 105 cos~;
#X obj 303 75 phasor~;
#X obj 234 75 phasor~;
#X obj 158 76 phasor~;
#X obj 96 76 phasor~;
#X obj 126 -1 loadbang;
#X text 129 296 night critters \, ajf2005;
#X obj 108 270 osc~ 0.01;
#X obj 91 295 *~;
#X obj 91 317 *~ 0.007;
#X msg 126 23 2012 4 20 2;
#X obj 92 345 *~;
#X obj 158 316 inlet~;
#X obj 92 375 outlet~;
#X connect 0 0 4 0;
#X connect 1 0 0 0;
#X connect 2 0 1 0;
#X connect 3 0 12 0;
#X connect 3 1 11 0;
#X connect 3 2 10 0;
#X connect 3 3 9 0;
#X connect 4 0 16 0;
#X connect 5 0 2 0;
#X connect 6 0 2 1;
#X connect 7 0 1 1;
#X connect 8 0 0 1;
#X connect 9 0 8 0;
#X connect 10 0 7 0;
#X connect 11 0 6 0;
#X connect 12 0 5 0;
#X connect 13 0 18 0;
#X connect 15 0 16 1;
#X connect 16 0 17 0;
#X connect 17 0 19 0;
#X connect 18 0 3 0;
#X connect 19 0 21 0;
#X connect 20 0 19 1;
#X restore 460 343 pd critters2;
#N canvas 0 22 537 758 frog 0;
#X obj 95 461 *~ 1;
#X obj 105 564 *~ 0.45;
#X obj 208 153 vline~;
#X obj 148 339 wrap~;
#X obj 148 390 *~;
#X obj 97 413 sig~ 1;
#X obj 96 440 /~;
#X obj 148 416 +~ 1;
#X obj 148 318 -~ 1;
#X obj 12 520 vcf~ 800 40;
#X obj 96 521 vcf~ 1 40;
#X obj 168 520 vcf~ 2600 20;
#X obj 201 445 *~ 120;
#X obj 157 446 *~ 60;
#X obj 254 445 *~ 340;
#X msg 208 132 1 \, 0 400;
#X msg 286 53 80;
#X msg 321 53 60;
#X msg 359 53 40;
#X obj 147 272 *~;
#X obj 96 590 hip~ 10;
#X obj 299 32 loadbang;
#X obj 208 62 metro 1000;
#X obj 208 110 sel 0;
#X obj 185 181 sig~ 1;
#X obj 184 204 -~;
#X obj 149 364 *~ 42;
#X obj 148 244 *~ 2.3;
#X obj 156 470 +~ 600;
#X obj 201 470 +~ 1500;
#X obj 254 470 +~ 2300;
#X obj 148 295 *~ 4;
#X obj 202 419 *~ 0.35;
#X obj 208 85 random 7;
#X obj 96 652 *~;
#X obj 155 616 inlet~;
#X obj 95 615 *~ 0.1;
#X obj 95 693 outlet~;
#X connect 0 0 9 0;
#X connect 0 0 10 0;
#X connect 0 0 11 0;
#X connect 1 0 20 0;
#X connect 2 0 25 1;
#X connect 3 0 26 0;
#X connect 4 0 7 0;
#X connect 5 0 6 0;
#X connect 6 0 0 0;
#X connect 7 0 6 1;
#X connect 8 0 3 0;
#X connect 9 0 1 0;
#X connect 10 0 20 0;
#X connect 11 0 1 0;
#X connect 12 0 29 0;
#X connect 13 0 28 0;
#X connect 14 0 30 0;
#X connect 15 0 2 0;
#X connect 16 0 9 2;
#X connect 17 0 10 2;
#X connect 18 0 11 2;
#X connect 19 0 31 0;
#X connect 19 0 32 0;
#X connect 20 0 36 0;
#X connect 21 0 18 0;
#X connect 21 0 17 0;
#X connect 21 0 16 0;
#X connect 21 0 22 0;
#X connect 22 0 33 0;
#X connect 23 0 15 0;
#X connect 24 0 25 0;
#X connect 25 0 27 0;
#X connect 26 0 4 0;
#X connect 26 0 4 1;
#X connect 27 0 19 0;
#X connect 27 0 19 1;
#X connect 28 0 9 1;
#X connect 29 0 10 1;
#X connect 30 0 11 1;
#X connect 31 0 8 0;
#X connect 32 0 12 0;
#X connect 32 0 13 0;
#X connect 32 0 14 0;
#X connect 33 0 23 0;
#X connect 34 0 37 0;
#X connect 35 0 34 1;
#X connect 36 0 34 0;
#X restore 976 338 pd frog;
#N canvas 0 22 543 733 frog2 0;
#X obj 95 461 *~ 1;
#X obj 105 564 *~ 0.45;
#X obj 208 153 vline~;
#X obj 148 339 wrap~;
#X obj 148 390 *~;
#X obj 97 413 sig~ 1;
#X obj 96 440 /~;
#X obj 148 416 +~ 1;
#X obj 148 318 -~ 1;
#X obj 149 364 *~ 122;
#X obj 12 520 vcf~ 800 40;
#X obj 96 521 vcf~ 1 40;
#X obj 168 520 vcf~ 2600 20;
#X obj 201 393 *~ -1;
#X obj 262 304 sig~ 1;
#X obj 261 327 -~;
#X obj 261 361 min~ 0.5;
#X obj 201 361 max~ 0.9;
#X obj 147 272 *~;
#X obj 148 220 *~ -1;
#X obj 208 188 min~ 0.5;
#X obj 147 189 max~ 0.5;
#X obj 96 590 hip~ 10;
#X obj 299 32 loadbang;
#X obj 208 110 sel 0;
#X obj 156 470 +~ 900;
#X obj 201 470 +~ 1800;
#X obj 254 470 +~ 2900;
#X obj 254 445 *~ 240;
#X obj 201 445 *~ 90;
#X obj 157 446 *~ 40;
#X obj 200 417 *~ 3;
#X obj 148 244 *~ 3;
#X msg 208 132 1 \, 0 200;
#X obj 148 295 *~ 2;
#X msg 359 53 30;
#X msg 321 53 40;
#X msg 286 53 50;
#X obj 208 62 metro 700;
#X obj 208 85 random 7;
#X obj 96 634 *~;
#X obj 156 612 inlet~;
#X obj 96 611 *~ 0.2;
#X obj 95 671 outlet~;
#X connect 0 0 10 0;
#X connect 0 0 11 0;
#X connect 0 0 12 0;
#X connect 1 0 22 0;
#X connect 2 0 15 1;
#X connect 2 0 21 0;
#X connect 2 0 20 0;
#X connect 3 0 9 0;
#X connect 4 0 7 0;
#X connect 5 0 6 0;
#X connect 6 0 0 0;
#X connect 7 0 6 1;
#X connect 8 0 3 0;
#X connect 9 0 4 0;
#X connect 9 0 4 1;
#X connect 10 0 1 0;
#X connect 11 0 22 0;
#X connect 12 0 1 0;
#X connect 13 0 31 0;
#X connect 14 0 15 0;
#X connect 15 0 16 0;
#X connect 15 0 17 0;
#X connect 16 0 31 0;
#X connect 17 0 13 0;
#X connect 18 0 34 0;
#X connect 19 0 32 0;
#X connect 20 0 32 0;
#X connect 21 0 19 0;
#X connect 22 0 42 0;
#X connect 23 0 35 0;
#X connect 23 0 36 0;
#X connect 23 0 37 0;
#X connect 23 0 38 0;
#X connect 24 0 33 0;
#X connect 25 0 10 1;
#X connect 26 0 11 1;
#X connect 27 0 12 1;
#X connect 28 0 27 0;
#X connect 29 0 26 0;
#X connect 30 0 25 0;
#X connect 31 0 28 0;
#X connect 31 0 29 0;
#X connect 31 0 30 0;
#X connect 32 0 18 0;
#X connect 32 0 18 1;
#X connect 33 0 2 0;
#X connect 34 0 8 0;
#X connect 35 0 12 2;
#X connect 36 0 11 2;
#X connect 37 0 10 2;
#X connect 38 0 39 0;
#X connect 39 0 24 0;
#X connect 40 0 43 0;
#X connect 41 0 40 1;
#X connect 42 0 40 0;
#X restore 910 338 pd frog2;
#N canvas 0 22 532 508 frog 0;
#X obj 111 124 noise~;
#X obj 112 159 *~;
#X obj 161 75 *~;
#X obj 161 100 *~;
#X obj 162 123 *~;
#X obj 112 286 *~;
#X obj 113 235 vcf~ 500 1;
#X obj 203 139 +~ 450;
#X obj 111 312 *~;
#X obj 162 261 osc~ 12;
#X obj 222 194 loadbang;
#X obj 161 51 osc~ 0.4444;
#X msg 222 216 80;
#X obj 112 208 bp~ 510 220;
#X obj 111 182 bp~ 450 220;
#X obj 205 117 *~ 70;
#X obj 113 262 *~ 60;
#X obj 111 444 *~;
#X obj 128 419 inlet~;
#X obj 125 368 lop~ 1;
#X obj 369 158 bng 15 250 50 0 empty empty empty 0 -6 0 8 -262144 -1
-1;
#X obj 302 231 sel 0 1;
#X msg 300 253 0;
#X msg 335 253 1;
#X obj 301 208 random 4;
#X obj 110 391 *~;
#X obj 301 183 metro 1300;
#X obj 110 336 *~ 0.4;
#X obj 111 471 outlet~;
#X connect 0 0 1 0;
#X connect 1 0 14 0;
#X connect 2 0 3 0;
#X connect 2 0 3 1;
#X connect 2 0 5 1;
#X connect 2 0 15 0;
#X connect 3 0 4 0;
#X connect 3 0 4 1;
#X connect 4 0 1 1;
#X connect 5 0 8 0;
#X connect 6 0 16 0;
#X connect 7 0 6 1;
#X connect 8 0 27 0;
#X connect 9 0 8 1;
#X connect 10 0 12 0;
#X connect 10 0 26 0;
#X connect 11 0 2 0;
#X connect 11 0 2 1;
#X connect 12 0 6 2;
#X connect 13 0 6 0;
#X connect 14 0 13 0;
#X connect 15 0 7 0;
#X connect 16 0 5 0;
#X connect 17 0 28 0;
#X connect 18 0 17 1;
#X connect 19 0 25 1;
#X connect 20 0 26 0;
#X connect 21 0 22 0;
#X connect 21 1 23 0;
#X connect 22 0 19 0;
#X connect 23 0 19 0;
#X connect 24 0 21 0;
#X connect 25 0 17 0;
#X connect 26 0 24 0;
#X connect 27 0 25 0;
#X restore 1033 338 pd frog reson;
#N canvas 480 41 537 503 cricket 0;
#X obj 141 220 cos~;
#X obj 156 140 cos~;
#X obj 141 197 +~;
#X obj 104 164 wrap~;
#X obj 119 344 *~ 0.07;
#X obj 156 168 *~ 0.2;
#X obj 140 247 *~;
#X obj 156 119 wrap~;
#X obj 119 281 *~;
#X obj 66 162 cos~;
#X obj 129 57 phasor~ 18;
#X obj 104 140 *~ 250;
#X obj 156 95 *~ 2.1;
#X obj 264 179 *~;
#X obj 212 104 noise~;
#X obj 212 126 lop~ 5;
#X obj 197 224 *~;
#X obj 198 200 +~ 0.6;
#X obj 211 157 *~ 12;
#X obj 264 131 phasor~ -2;
#X obj 261 -9 noise~;
#X obj 262 13 lop~ 0.2;
#X obj 263 35 lop~ 0.2;
#X obj 263 82 clip~ 0 1;
#X obj 263 58 *~ 1e+09;
#X obj 119 311 *~;
#X obj 263 108 *~ -2;
#X obj 264 154 lop~ 8;
#X obj 119 393 *~;
#X obj 135 368 inlet~;
#X obj 120 438 outlet~;
#X connect 0 0 6 0;
#X connect 1 0 5 0;
#X connect 2 0 0 0;
#X connect 3 0 2 0;
#X connect 4 0 28 0;
#X connect 5 0 2 1;
#X connect 6 0 8 1;
#X connect 7 0 1 0;
#X connect 8 0 25 0;
#X connect 9 0 8 0;
#X connect 10 0 11 0;
#X connect 10 0 12 0;
#X connect 10 0 9 0;
#X connect 11 0 3 0;
#X connect 12 0 7 0;
#X connect 13 0 16 1;
#X connect 14 0 15 0;
#X connect 15 0 18 0;
#X connect 15 0 27 0;
#X connect 16 0 6 1;
#X connect 17 0 16 0;
#X connect 18 0 17 0;
#X connect 19 0 27 0;
#X connect 20 0 21 0;
#X connect 21 0 22 0;
#X connect 22 0 24 0;
#X connect 23 0 25 1;
#X connect 23 0 26 0;
#X connect 24 0 23 0;
#X connect 25 0 4 0;
#X connect 26 0 19 0;
#X connect 27 0 13 1;
#X connect 27 0 13 0;
#X connect 28 0 30 0;
#X connect 29 0 28 1;
#X restore -37 341 pd cricket;
#N canvas 223 47 480 508 cricket 0;
#X obj 141 220 cos~;
#X obj 156 140 cos~;
#X obj 141 197 +~;
#X obj 104 164 wrap~;
#X obj 119 344 *~ 0.07;
#X obj 156 168 *~ 0.2;
#X obj 140 247 *~;
#X obj 156 119 wrap~;
#X obj 119 281 *~;
#X obj 66 162 cos~;
#X obj 104 140 *~ 250;
#X obj 156 95 *~ 2.1;
#X obj 264 179 *~;
#X obj 212 104 noise~;
#X obj 212 126 lop~ 5;
#X obj 197 224 *~;
#X obj 198 200 +~ 0.6;
#X obj 211 157 *~ 12;
#X obj 264 131 phasor~ -2;
#X obj 261 -9 noise~;
#X obj 262 13 lop~ 0.2;
#X obj 263 35 lop~ 0.2;
#X obj 263 82 clip~ 0 1;
#X obj 263 58 *~ 1e+09;
#X obj 119 311 *~;
#X obj 264 154 lop~ 8;
#X obj 129 57 phasor~ 21;
#X obj 263 108 *~ -4;
#X obj 119 392 *~;
#X obj 135 367 inlet~;
#X obj 120 425 outlet~;
#X connect 0 0 6 0;
#X connect 1 0 5 0;
#X connect 2 0 0 0;
#X connect 3 0 2 0;
#X connect 4 0 28 0;
#X connect 5 0 2 1;
#X connect 6 0 8 1;
#X connect 7 0 1 0;
#X connect 8 0 24 0;
#X connect 9 0 8 0;
#X connect 10 0 3 0;
#X connect 11 0 7 0;
#X connect 12 0 15 1;
#X connect 13 0 14 0;
#X connect 14 0 17 0;
#X connect 14 0 25 0;
#X connect 15 0 6 1;
#X connect 16 0 15 0;
#X connect 17 0 16 0;
#X connect 18 0 25 0;
#X connect 19 0 20 0;
#X connect 20 0 21 0;
#X connect 21 0 23 0;
#X connect 22 0 24 1;
#X connect 22 0 27 0;
#X connect 23 0 22 0;
#X connect 24 0 4 0;
#X connect 25 0 12 1;
#X connect 25 0 12 0;
#X connect 26 0 10 0;
#X connect 26 0 11 0;
#X connect 26 0 9 0;
#X connect 27 0 18 0;
#X connect 28 0 30 0;
#X connect 29 0 28 1;
#X restore 34 340 pd cricket;
#N canvas 0 22 559 558 cricket 0;
#X obj 141 220 cos~;
#X obj 156 140 cos~;
#X obj 141 197 +~;
#X obj 104 164 wrap~;
#X obj 119 344 *~ 0.07;
#X obj 156 168 *~ 0.2;
#X obj 140 247 *~;
#X obj 156 119 wrap~;
#X obj 119 281 *~;
#X obj 66 162 cos~;
#X obj 104 140 *~ 250;
#X obj 156 95 *~ 2.1;
#X obj 264 179 *~;
#X obj 212 104 noise~;
#X obj 212 126 lop~ 5;
#X obj 197 224 *~;
#X obj 198 200 +~ 0.6;
#X obj 211 157 *~ 12;
#X obj 264 131 phasor~ -2;
#X obj 261 -9 noise~;
#X obj 263 82 clip~ 0 1;
#X obj 263 58 *~ 1e+09;
#X obj 119 311 *~;
#X obj 264 154 lop~ 8;
#X obj 129 57 phasor~ 12;
#X obj 263 108 *~ -3;
#X obj 263 35 lop~ 0.1;
#X obj 262 13 lop~ 0.1;
#X obj 120 393 *~;
#X obj 136 368 inlet~;
#X obj 120 426 outlet~;
#X connect 0 0 6 0;
#X connect 1 0 5 0;
#X connect 2 0 0 0;
#X connect 3 0 2 0;
#X connect 4 0 28 0;
#X connect 5 0 2 1;
#X connect 6 0 8 1;
#X connect 7 0 1 0;
#X connect 8 0 22 0;
#X connect 9 0 8 0;
#X connect 10 0 3 0;
#X connect 11 0 7 0;
#X connect 12 0 15 1;
#X connect 13 0 14 0;
#X connect 14 0 17 0;
#X connect 14 0 23 0;
#X connect 15 0 6 1;
#X connect 16 0 15 0;
#X connect 17 0 16 0;
#X connect 18 0 23 0;
#X connect 19 0 27 0;
#X connect 20 0 22 1;
#X connect 20 0 25 0;
#X connect 21 0 20 0;
#X connect 22 0 4 0;
#X connect 23 0 12 1;
#X connect 23 0 12 0;
#X connect 24 0 10 0;
#X connect 24 0 11 0;
#X connect 24 0 9 0;
#X connect 25 0 18 0;
#X connect 26 0 21 0;
#X connect 27 0 26 0;
#X connect 28 0 30 0;
#X connect 29 0 28 1;
#X restore 104 340 pd cricket;
#N canvas 0 22 586 454 cricket 0;
#X obj 216 113 osc~ 3000;
#X obj 151 119 *~;
#X obj 152 42 osc~ 3.6;
#X obj 151 147 *~;
#X obj 152 69 +~ 1;
#X obj 152 93 *~ 0.5;
#X obj 151 173 *~;
#X obj 217 88 +~ 3000;
#X obj 216 63 *~ 300;
#X obj 151 203 *~;
#X obj 217 40 osc~ 120;
#X obj 296 25 noise~;
#X obj 298 116 clip~ 0 1;
#X obj 298 92 *~ 1e+09;
#X obj 298 69 lop~ 0.1;
#X obj 297 47 lop~ 0.1;
#X obj 151 231 *~;
#X obj 164 315 *~;
#X obj 180 290 inlet~;
#X obj 152 265 *~ 0.05;
#X obj 153 346 outlet~;
#X connect 0 0 9 1;
#X connect 1 0 3 0;
#X connect 1 0 3 1;
#X connect 2 0 4 0;
#X connect 3 0 6 0;
#X connect 3 0 6 1;
#X connect 4 0 5 0;
#X connect 5 0 1 0;
#X connect 5 0 1 1;
#X connect 6 0 9 0;
#X connect 7 0 0 0;
#X connect 8 0 7 0;
#X connect 9 0 16 0;
#X connect 10 0 8 0;
#X connect 11 0 15 0;
#X connect 12 0 16 1;
#X connect 13 0 12 0;
#X connect 14 0 13 0;
#X connect 15 0 14 0;
#X connect 16 0 19 0;
#X connect 17 0 20 0;
#X connect 18 0 17 1;
#X connect 19 0 17 0;
#X restore 336 343 pd cricket japanese;
#N canvas 0 22 724 521 bullcricket 0;
#X obj 118 47 *~ 4;
#X obj 73 86 clip~ 0 1;
#X obj 153 87 clip~ 1 2;
#X obj 153 109 -~ 1;
#X obj 152 134 wrap~;
#X obj 136 167 +~;
#X obj 262 133 cos~;
#X obj 216 131 cos~;
#X obj 222 304 *~;
#X obj 221 161 *~;
#X obj 118 24 phasor~ 1;
#X obj 136 243 cos~;
#X obj 136 219 -~ 0.75;
#X obj 136 197 *~ 0.5;
#X obj 237 190 +~;
#X obj 240 85 phasor~ 20;
#X obj 261 110 *~ 900;
#X obj 322 208 clip~ 0 1;
#X obj 322 184 *~ 1e+09;
#X obj 293 261 *~;
#X obj 302 152 osc~ 0.057;
#X obj 378 152 osc~ 0.027;
#X obj 237 212 hip~ 2000;
#X obj 223 454 *~;
#X obj 239 429 inlet~;
#X obj 223 328 hip~ 30;
#X obj 222 361 lop~ 3000;
#X obj 222 407 *~ 0.4;
#X obj 222 492 outlet~;
#X connect 0 0 1 0;
#X connect 0 0 2 0;
#X connect 1 0 5 0;
#X connect 2 0 3 0;
#X connect 3 0 4 0;
#X connect 4 0 5 1;
#X connect 5 0 13 0;
#X connect 6 0 9 1;
#X connect 6 0 14 1;
#X connect 7 0 9 0;
#X connect 7 0 14 1;
#X connect 8 0 25 0;
#X connect 9 0 14 0;
#X connect 10 0 0 0;
#X connect 11 0 8 0;
#X connect 12 0 11 0;
#X connect 13 0 12 0;
#X connect 14 0 22 0;
#X connect 15 0 7 0;
#X connect 15 0 16 0;
#X connect 16 0 6 0;
#X connect 17 0 19 1;
#X connect 18 0 17 0;
#X connect 19 0 8 1;
#X connect 20 0 18 0;
#X connect 21 0 18 0;
#X connect 22 0 19 0;
#X connect 23 0 28 0;
#X connect 24 0 23 1;
#X connect 25 0 26 0;
#X connect 26 0 27 0;
#X connect 27 0 23 0;
#X restore 245 342 pd bullcricket;
#N canvas 0 22 511 479 critters 0;
#X obj 93 226 *~;
#X obj 94 188 *~;
#X obj 94 152 *~;
#X obj 126 46 unpack 1 2 3 4;
#X obj 92 253 hip~ 20;
#X obj 95 107 cos~;
#X obj 158 106 cos~;
#X obj 233 105 cos~;
#X obj 303 105 cos~;
#X obj 303 75 phasor~;
#X obj 234 75 phasor~;
#X obj 158 76 phasor~;
#X obj 96 76 phasor~;
#X obj 126 -1 loadbang;
#X text 129 296 night critters \, ajf2005;
#X msg 126 23 2134 4.279 20.4 15.5;
#X obj 108 270 osc~ 0.01;
#X obj 91 295 *~;
#X obj 91 317 *~ 0.007;
#X obj 90 382 *~;
#X obj 106 357 inlet~;
#X obj 90 415 outlet~;
#X connect 0 0 4 0;
#X connect 1 0 0 0;
#X connect 2 0 1 0;
#X connect 3 0 12 0;
#X connect 3 1 11 0;
#X connect 3 2 10 0;
#X connect 3 3 9 0;
#X connect 4 0 17 0;
#X connect 5 0 2 0;
#X connect 6 0 2 1;
#X connect 7 0 1 1;
#X connect 8 0 0 1;
#X connect 9 0 8 0;
#X connect 10 0 7 0;
#X connect 11 0 6 0;
#X connect 12 0 5 0;
#X connect 13 0 15 0;
#X connect 15 0 3 0;
#X connect 16 0 17 1;
#X connect 17 0 18 0;
#X connect 18 0 19 0;
#X connect 19 0 21 0;
#X connect 20 0 19 1;
#X restore 541 344 pd critters;
#N canvas 0 22 772 704 bee 0;
#X obj 157 329 phasor~ 600;
#X obj 247 329 phasor~ 600;
#X obj 248 304 +~;
#X obj 264 276 osc~ 0.2;
#X obj 226 234 +~;
#X obj 289 98 noise~;
#X obj 158 358 >~ 0.97;
#X obj 248 358 >~ 0.97;
#X obj 289 120 lop~ 1;
#X obj 289 142 *~ 2000;
#X obj 214 554 *~;
#X obj 263 555 *~;
#X obj 237 488 sig~ 1;
#X obj 236 513 -~;
#X obj 159 384 bp~ 6000 12;
#X obj 250 387 bp~ 6000 12;
#X obj 226 143 lop~ 0.2;
#X obj 226 167 *~ 5000;
#X obj 341 256 noise~;
#X obj 343 347 clip~ 0 1;
#X obj 343 323 *~ 1e+09;
#X obj 342 278 lop~ 0.2;
#X obj 343 300 lop~ 0.2;
#X obj 196 430 *~;
#X obj 226 189 +~ 300;
#X obj 314 203 lop~ 0.5;
#X obj 303 166 *~ 0.2;
#X obj 194 456 *~ 0.02;
#X obj 265 592 *~;
#X obj 297 556 inlet~;
#X obj 213 595 *~;
#X obj 213 630 outlet~;
#X obj 266 628 outlet~;
#X connect 0 0 6 0;
#X connect 1 0 7 0;
#X connect 2 0 1 0;
#X connect 3 0 2 1;
#X connect 4 0 0 0;
#X connect 4 0 2 0;
#X connect 5 0 8 0;
#X connect 5 0 16 0;
#X connect 6 0 14 0;
#X connect 7 0 15 0;
#X connect 8 0 9 0;
#X connect 9 0 4 1;
#X connect 9 0 3 0;
#X connect 9 0 26 0;
#X connect 10 0 30 0;
#X connect 11 0 28 0;
#X connect 12 0 13 0;
#X connect 13 0 10 1;
#X connect 14 0 23 0;
#X connect 15 0 23 0;
#X connect 16 0 17 0;
#X connect 17 0 24 0;
#X connect 18 0 21 0;
#X connect 19 0 23 1;
#X connect 20 0 19 0;
#X connect 21 0 22 0;
#X connect 22 0 20 0;
#X connect 23 0 27 0;
#X connect 24 0 4 0;
#X connect 25 0 13 1;
#X connect 25 0 11 1;
#X connect 26 0 25 0;
#X connect 27 0 10 0;
#X connect 27 0 11 0;
#X connect 28 0 32 0;
#X connect 29 0 28 1;
#X connect 29 0 30 1;
#X connect 30 0 31 0;
#X restore 1294 424 pd bee;
#N canvas 0 22 607 636 fly 0;
#X obj 110 164 +~ 284;
#X obj 110 185 phasor~ 640;
#X obj 96 395 /~;
#X obj 112 368 +~ 1;
#X obj 113 344 *~;
#X obj 66 344 sig~ 1;
#X obj 110 77 noise~;
#X obj 110 98 lop~ 2;
#X obj 110 116 lop~ 2;
#X obj 110 136 *~ 2000;
#X obj 111 208 -~ 0.5;
#X obj 111 240 *~;
#X obj 111 264 *~ -4;
#X obj 111 293 +~ 1;
#X obj 172 113 * 4;
#X obj 222 155 / 500;
#X obj 105 422 *~;
#X obj 174 83 line;
#X msg 214 54 280 60;
#X obj 112 316 *~ 16;
#X obj 107 443 bp~ 2000 0.3;
#X msg 169 55 0 20;
#X obj 173 25 sel 0 1;
#X obj 264 -26 loadbang;
#X obj 127 -15 bng 15 250 50 0 empty empty empty 0 -6 0 8 -262144 -1
-1;
#X obj 174 -24 metro 1000;
#X obj 174 -1 random 3;
#X obj 112 517 *~;
#X obj 128 492 inlet~;
#X obj 108 470 *~ 0.007;
#X obj 112 547 outlet~;
#X connect 0 0 1 0;
#X connect 1 0 10 0;
#X connect 2 0 16 0;
#X connect 3 0 2 1;
#X connect 4 0 3 0;
#X connect 5 0 2 0;
#X connect 6 0 7 0;
#X connect 7 0 8 0;
#X connect 8 0 9 0;
#X connect 9 0 0 0;
#X connect 10 0 11 0;
#X connect 10 0 11 1;
#X connect 11 0 12 0;
#X connect 12 0 13 0;
#X connect 13 0 19 0;
#X connect 14 0 9 1;
#X connect 15 0 16 1;
#X connect 16 0 20 0;
#X connect 17 0 15 0;
#X connect 17 0 14 0;
#X connect 17 0 0 1;
#X connect 18 0 17 0;
#X connect 19 0 4 0;
#X connect 19 0 4 1;
#X connect 20 0 29 0;
#X connect 21 0 17 0;
#X connect 22 0 21 0;
#X connect 22 1 18 0;
#X connect 23 0 25 0;
#X connect 24 0 25 0;
#X connect 25 0 26 0;
#X connect 26 0 22 0;
#X connect 27 0 30 0;
#X connect 28 0 27 1;
#X connect 29 0 27 0;
#X restore 1122 337 pd fly;
#N canvas 0 22 682 607 circada1 0;
#X obj 17 7 noise~;
#X obj 17 75 hip~ 5000;
#X obj 17 96 hip~ 5000;
#X obj 17 117 lop~ 8000;
#X obj 17 138 lop~ 8000;
#X obj 99 216 *~;
#X obj 187 216 *~;
#X obj 99 317 *~;
#X obj 116 271 +~;
#X obj 99 337 bp~ 6000 7;
#X obj 99 358 hip~ 4000;
#X obj 99 240 *~;
#X obj 99 168 *~ -90;
#X obj 99 144 +~ 1;
#X obj 143 96 lop~ 2;
#X obj 143 72 lop~ 2;
#X obj 99 120 *~ 30;
#X obj 187 120 *~ 10;
#X obj 187 144 +~ 1;
#X obj 187 168 *~ -20;
#X obj 99 192 phasor~;
#X obj 187 192 phasor~;
#X obj 116 295 lop~ 70;
#X obj 307 103 metro 3000;
#X obj 308 78 loadbang;
#X obj 375 78 bng 15 250 50 0 empty empty empty 0 -6 0 8 -262144 -1
-1;
#X obj 308 151 sel 0 1;
#X obj 99 402 *~;
#X obj 157 379 lop~ 1;
#X msg 279 198 0;
#X msg 314 198 1;
#X obj 307 128 random 3;
#X obj 98 437 *~;
#X obj 33 385 inlet~;
#X obj 99 380 *~ 0.1;
#X obj 98 468 outlet~;
#X connect 0 0 1 0;
#X connect 0 0 15 0;
#X connect 1 0 2 0;
#X connect 2 0 3 0;
#X connect 3 0 4 0;
#X connect 4 0 7 0;
#X connect 5 0 11 0;
#X connect 5 0 11 1;
#X connect 6 0 8 1;
#X connect 7 0 9 0;
#X connect 8 0 22 0;
#X connect 9 0 10 0;
#X connect 10 0 34 0;
#X connect 11 0 8 0;
#X connect 12 0 20 0;
#X connect 13 0 12 0;
#X connect 14 0 16 0;
#X connect 14 0 17 0;
#X connect 15 0 14 0;
#X connect 16 0 13 0;
#X connect 17 0 18 0;
#X connect 18 0 19 0;
#X connect 19 0 21 0;
#X connect 20 0 5 0;
#X connect 20 0 5 1;
#X connect 21 0 6 0;
#X connect 21 0 6 1;
#X connect 22 0 7 1;
#X connect 23 0 31 0;
#X connect 24 0 23 0;
#X connect 25 0 23 0;
#X connect 26 0 29 0;
#X connect 26 1 30 0;
#X connect 27 0 32 1;
#X connect 28 0 27 1;
#X connect 29 0 28 0;
#X connect 30 0 28 0;
#X connect 31 0 26 0;
#X connect 32 0 35 0;
#X connect 33 0 32 0;
#X connect 34 0 27 0;
#X restore 696 343 pd circada1;
#X obj 243 317 tgl 15 1 empty empty empty 0 -6 0 8 -262144 -1 -1 0
1;
#X obj 336 320 tgl 15 1 empty empty empty 0 -6 0 8 -262144 -1 -1 0
1;
#X obj 841 313 tgl 15 1 empty empty empty 0 -6 0 8 -262144 -1 -1 0
1;
#X obj -37 317 tgl 15 1 empty empty empty 0 -6 0 8 -262144 -1 -1 0
1;
#X obj 35 316 tgl 15 1 empty empty empty 0 -6 0 8 -262144 -1 -1 0 1
;
#X obj 105 314 tgl 15 1 empty empty empty 0 -6 0 8 -262144 -1 -1 0
1;
#X obj 766 313 tgl 15 1 empty empty empty 0 -6 0 8 -262144 -1 -1 0
1;
#X obj 172 314 tgl 15 1 empty empty empty 0 -6 0 8 -262144 -1 -1 0
1;
#X obj 1031 315 tgl 15 1 empty empty empty 0 -6 0 8 -262144 -1 -1 0
1;
#X obj 458 317 tgl 15 1 empty empty empty 0 -6 0 8 -262144 -1 -1 0
1;
#X obj 541 316 tgl 15 1 empty empty empty 0 -6 0 8 -262144 -1 -1 0
1;
#X obj 974 312 tgl 15 1 empty empty empty 0 -6 0 8 -262144 -1 -1 0
1;
#X obj 915 316 tgl 15 1 empty empty empty 0 -6 0 8 -262144 -1 -1 0
1;
#X obj 694 316 tgl 15 1 empty empty empty 0 -6 0 8 -262144 -1 -1 0
1;
#N canvas 0 22 548 524 circada2 0;
#X obj 187 27 noise~;
#X obj 139 106 +~ 1;
#X obj 224 125 +~ 1;
#X obj 224 83 lop~ 5;
#X obj 224 62 lop~ 5;
#X obj 139 169 hip~ 12000;
#X obj 139 190 hip~ 12000;
#X obj 139 148 phasor~;
#X obj 139 127 *~ -120;
#X obj 224 167 osc~;
#X obj 224 104 *~ 0;
#X obj 224 188 clip~ 0 1;
#X obj 150 223 bp~ 5000 30;
#X obj 234 223 bp~ 6000 30;
#X obj 223 248 bp~ 8000 30;
#X obj 139 248 bp~ 7000 30;
#X obj 138 309 *~;
#X obj 138 330 bp~ 6000 5;
#X obj 224 146 *~ -12;
#X obj 139 64 bp~ 120 40;
#X obj 139 85 *~ 190;
#X obj 138 406 *~;
#X obj 154 384 inlet~;
#X obj 138 359 *~;
#X obj 222 329 lop~ 1;
#X obj 381 54 loadbang;
#X obj 448 54 bng 15 250 50 0 empty empty empty 0 -6 0 8 -262144 -1
-1;
#X obj 381 127 sel 0 1;
#X msg 352 174 0;
#X msg 387 174 1;
#X obj 380 104 random 4;
#X obj 380 79 metro 1000;
#X obj 138 288 *~ 0.7;
#X obj 138 450 outlet~;
#X connect 0 0 4 0;
#X connect 0 0 19 0;
#X connect 1 0 8 0;
#X connect 2 0 18 0;
#X connect 3 0 10 0;
#X connect 4 0 3 0;
#X connect 5 0 6 0;
#X connect 6 0 12 0;
#X connect 6 0 13 0;
#X connect 6 0 14 0;
#X connect 6 0 15 0;
#X connect 7 0 5 0;
#X connect 8 0 7 0;
#X connect 9 0 11 0;
#X connect 10 0 2 0;
#X connect 11 0 16 1;
#X connect 12 0 32 0;
#X connect 13 0 32 0;
#X connect 14 0 32 0;
#X connect 15 0 32 0;
#X connect 16 0 17 0;
#X connect 17 0 23 0;
#X connect 18 0 9 0;
#X connect 19 0 20 0;
#X connect 20 0 1 0;
#X connect 21 0 33 0;
#X connect 22 0 21 1;
#X connect 23 0 21 0;
#X connect 24 0 23 1;
#X connect 25 0 31 0;
#X connect 26 0 31 0;
#X connect 27 0 28 0;
#X connect 27 1 29 0;
#X connect 28 0 24 0;
#X connect 29 0 24 0;
#X connect 30 0 27 0;
#X connect 31 0 30 0;
#X connect 32 0 16 0;
#X restore 619 344 pd circada2;
#X obj 619 315 tgl 15 1 empty empty empty 0 -6 0 8 -262144 -1 -1 0
1;
#N canvas 0 22 590 525 flutter 0;
#X obj 121 158 sig~ 1;
#X obj 121 190 /~;
#X obj 174 167 +~ 1;
#X obj 175 141 *~;
#X obj 175 90 osc~ 20;
#X obj 230 167 noise~;
#X obj 121 215 *~;
#X obj 230 189 hip~ 8000;
#X obj 175 112 *~ 14;
#X obj 320 68 noise~;
#X obj 322 159 clip~ 0 1;
#X obj 322 135 *~ 1e+09;
#X obj 121 309 *~;
#X obj 121 241 bp~ 10000 15;
#X obj 230 213 *~ 0.1;
#X obj 304 226 clip~ 0 1;
#X obj 305 251 *~;
#X obj 303 181 osc~ 0.3;
#X obj 321 90 lop~ 0.2;
#X obj 322 112 lop~ 0.2;
#X obj 121 342 *~ 0.2;
#X obj 303 203 *~ 3;
#X obj 122 389 *~;
#X obj 138 364 inlet~;
#X obj 122 419 outlet~;
#X connect 0 0 1 0;
#X connect 1 0 6 0;
#X connect 2 0 1 1;
#X connect 3 0 2 0;
#X connect 4 0 8 0;
#X connect 5 0 7 0;
#X connect 6 0 13 0;
#X connect 7 0 6 1;
#X connect 7 0 14 0;
#X connect 8 0 3 0;
#X connect 8 0 3 1;
#X connect 9 0 18 0;
#X connect 10 0 16 1;
#X connect 11 0 10 0;
#X connect 12 0 20 0;
#X connect 13 0 12 0;
#X connect 14 0 13 0;
#X connect 15 0 16 0;
#X connect 16 0 12 1;
#X connect 17 0 21 0;
#X connect 18 0 19 0;
#X connect 19 0 11 0;
#X connect 20 0 22 0;
#X connect 21 0 15 0;
#X connect 22 0 24 0;
#X connect 23 0 22 1;
#X restore 841 341 pd flutter;
#X obj 1172 179 tgl 15 1 empty empty empty 0 -6 0 8 -262144 -1 -1 0
1;
#X obj 1183 226 bng 15 250 50 0 empty empty empty 17 7 0 10 -262144
-1 -1;
#X obj 162 156 tgl 15 1 empty empty empty 0 -6 0 8 -262144 -1 -1 0
1;
#X obj 128 202 bng 15 250 50 0 empty empty empty 17 7 0 10 -262144
-1 -1;
#X obj 450 150 tgl 15 1 empty empty empty 0 -6 0 8 -262144 -1 -1 0
1;
#X obj 480 197 bng 15 250 50 0 empty empty empty 17 7 0 10 -262144
-1 -1;
#X obj 707 140 tgl 15 1 empty empty empty 0 -6 0 8 -262144 -1 -1 0
1;
#X obj 684 181 bng 15 250 50 0 empty empty empty 17 7 0 10 -262144
-1 -1;
#X obj 708 159 metro 3000;
#X obj 974 168 tgl 15 1 empty empty empty 0 -6 0 8 -262144 -1 -1 0
1;
#X obj 1035 227 bng 15 250 50 0 empty empty empty 17 7 0 10 -262144
-1 -1;
#X obj 450 172 metro 4500;
#X obj 1215 402 tgl 15 0 empty empty empty 17 7 0 10 -262144 -1 -1
0 1;
#X obj 1122 315 tgl 15 0 empty empty empty 17 7 0 10 -262144 -1 -1
0 1;
#X obj 1294 402 tgl 15 0 empty empty empty 17 7 0 10 -262144 -1 -1
0 1;
#X obj 974 193 metro 35000;
#X obj 1171 244 random 3;
#X obj 1196 282 select 0;
#X obj 1129 282 select 1;
#X obj 1261 278 select 2;
#X obj 972 221 random 3;
#X obj 899 251 select 0;
#X obj 969 249 select 1;
#X obj 1034 250 select 2;
#X obj 450 218 random 2;
#X obj 451 260 select 0;
#X obj 519 262 select 1;
#X obj -22 236 select 0;
#X obj 43 238 select 1;
#X obj 112 238 select 2;
#X obj 172 240 select 3;
#X obj 239 235 select 4;
#X obj 302 237 select 5;
#X obj 163 181 metro 2000;
#X obj 619 237 select 0;
#X obj 684 239 select 1;
#X obj 753 239 select 2;
#X obj 819 239 select 3;
#X obj 1172 200 metro 30000;
#X obj 87 -45 inlet;
#X obj 33 68 s reset;
#X obj 98 32 loadbang;
#X msg 33 44 0;
#X obj -26 70 s start;
#X obj 1197 150 r start;
#X obj 1010 134 r start;
#X obj 473 122 r start;
#X obj 199 130 r start;
#X obj 733 118 r start;
#X obj 1132 151 r reset;
#X obj 125 264 r reset;
#X obj 988 281 r reset;
#X obj 470 291 r reset;
#X obj 710 276 r reset;
#X obj 1218 342 r reset;
#X obj 948 134 r reset;
#X obj 414 122 r reset;
#X obj 138 128 r reset;
#X obj 664 118 r reset;
#X obj 24 -14 tgl 15 0 empty empty empty 17 7 0 10 -262144 -1 -1 0
1;
#X obj -26 19 select 1;
#X obj 32 18 select 0;
#X obj 175 -15 tgl 15 1 empty empty empty 0 -6 0 8 -262144 -1 -1 0
1;
#X obj 175 44 metro 500;
#X obj 176 95 s pannSelector;
#X obj 582 -40 route 0 1 2 3 4 5 6 7 8 9 10 11 12 13 14 15;
#X obj 583 -64 r pannSelector;
#X msg 253 -3 symbol p1;
#X msg 320 -2 symbol p2;
#X msg 388 -1 symbol p3;
#X msg 456 0 symbol p4;
#X msg 525 -1 symbol p5;
#X msg 595 -2 symbol p6;
#X msg 662 -1 symbol p7;
#X msg 730 0 symbol p8;
#X msg 798 1 symbol p9;
#X msg 867 0 symbol p10;
#X msg 938 1 symbol p11;
#X msg 1005 2 symbol p12;
#X msg 1076 3 symbol p13;
#X msg 1146 3 symbol p14;
#X msg 1220 4 symbol p15;
#X msg 1287 4 symbol p16;
#X obj 651 79 s;
#X obj 280 40 metro 1000;
#X obj -30 407 r p1;
#X obj 111 408 r p3;
#X obj 182 410 r p4;
#X obj 253 412 r p5;
#X obj 337 409 r p6;
#X obj 481 414 r p7;
#X obj 552 411 r p8;
#X obj 627 411 r p9;
#X obj 704 411 r p10;
#X obj 779 412 r p11;
#X obj 846 412 r p12;
#X obj 917 411 r p13;
#X obj 985 412 r p14;
#X obj 1128 414 r p16;
#X obj 1048 411 r p15;
#X obj 297 90 * 50;
#X obj 280 67 random 2;
#X obj 175 71 random 17;
#X obj 51 619 outlet~;
#X obj 175 619 outlet~;
#X obj 726 623 outlet~;
#X obj 631 623 outlet~;
#X obj 1247 606 outlet~;
#X obj 1036 611 outlet~;
#X obj -37 546 pan-cos;
#X obj 108 546 pan-cos;
#X obj 37 545 pan-cos;
#X obj 177 544 pan-cos;
#X obj 250 546 pan-cos;
#X obj 317 547 pan-cos;
#X obj 469 547 pan-cos;
#X obj 550 547 pan-cos;
#X obj 620 543 pan-cos;
#X obj 696 542 pan-cos;
#X obj 771 543 pan-cos;
#X obj 834 544 pan-cos;
#X obj 914 543 pan-cos;
#X obj 979 542 pan-cos;
#X obj 1040 541 pan-cos;
#X obj 1121 541 pan-cos;
#X obj -27 450 hsl 50 15 0 50 0 0 empty empty empty -2 -8 0 10 -262144
-1 -1 0 1;
#X obj 43 452 hsl 50 15 0 50 0 0 empty empty empty -2 -8 0 10 -262144
-1 -1 0 1;
#X obj 40 409 r p2;
#X obj 114 453 hsl 50 15 0 50 0 0 empty empty empty -2 -8 0 10 -262144
-1 -1 0 1;
#X obj 185 454 hsl 50 15 0 50 0 0 empty empty empty -2 -8 0 10 -262144
-1 -1 0 1;
#X obj 256 454 hsl 50 15 0 50 0 0 empty empty empty -2 -8 0 10 -262144
-1 -1 0 1;
#X obj 335 454 hsl 50 15 0 50 0 0 empty empty empty -2 -8 0 10 -262144
-1 -1 0 1;
#X obj 483 455 hsl 50 15 0 50 0 0 empty empty empty -2 -8 0 10 -262144
-1 -1 0 1;
#X obj 555 454 hsl 50 15 0 50 0 0 empty empty empty -2 -8 0 10 -262144
-1 -1 0 1;
#X obj 630 453 hsl 50 15 0 50 0 0 empty empty empty -2 -8 0 10 -262144
-1 -1 0 1;
#X obj 705 453 hsl 50 15 0 50 0 0 empty empty empty -2 -8 0 10 -262144
-1 -1 0 1;
#X obj 780 453 hsl 50 15 0 50 0 0 empty empty empty -2 -8 0 10 -262144
-1 -1 0 1;
#X obj 848 453 hsl 50 15 0 50 0 0 empty empty empty -2 -8 0 10 -262144
-1 -1 0 1;
#X obj 920 453 hsl 50 15 0 50 0 0 empty empty empty -2 -8 0 10 -262144
-1 -1 0 1;
#X obj 988 455 hsl 50 15 0 50 0 0 empty empty empty -2 -8 0 10 -262144
-1 -1 0 1;
#X obj 1051 455 hsl 50 15 0 50 0 0 empty empty empty -2 -8 0 10 -262144
-1 -1 0 1;
#X obj 1131 450 hsl 50 15 0 50 0 0 empty empty empty -2 -8 0 10 -262144
-1 -1 0 1;
#X obj 162 204 random 6;
#X obj 708 191 random 4;
#X connect 0 0 145 0;
#X connect 1 0 141 0;
#X connect 1 1 140 0;
#X connect 2 0 152 0;
#X connect 3 0 148 0;
#X connect 4 0 155 0;
#X connect 5 0 154 0;
#X connect 6 0 156 0;
#X connect 7 0 142 0;
#X connect 8 0 144 0;
#X connect 9 0 143 0;
#X connect 10 0 147 0;
#X connect 11 0 146 0;
#X connect 12 0 149 0;
#X connect 13 0 141 0;
#X connect 13 1 140 0;
#X connect 14 0 157 0;
#X connect 15 0 151 0;
#X connect 16 0 11 0;
#X connect 17 0 10 0;
#X connect 18 0 32 0;
#X connect 19 0 7 0;
#X connect 20 0 8 0;
#X connect 21 0 9 0;
#X connect 22 0 2 0;
#X connect 23 0 0 0;
#X connect 24 0 6 0;
#X connect 25 0 3 0;
#X connect 26 0 12 0;
#X connect 27 0 4 0;
#X connect 28 0 5 0;
#X connect 29 0 15 0;
#X connect 30 0 150 0;
#X connect 31 0 30 0;
#X connect 32 0 153 0;
#X connect 33 0 71 0;
#X connect 35 0 66 0;
#X connect 37 0 44 0;
#X connect 39 0 41 0;
#X connect 41 0 40 0;
#X connect 41 0 176 0;
#X connect 42 0 48 0;
#X connect 44 0 38 0;
#X connect 44 0 57 0;
#X connect 45 0 1 0;
#X connect 46 0 14 0;
#X connect 47 0 13 0;
#X connect 48 0 43 0;
#X connect 48 0 53 0;
#X connect 49 0 50 0;
#X connect 49 0 51 0;
#X connect 49 0 52 0;
#X connect 50 0 45 0;
#X connect 51 0 46 0;
#X connect 52 0 47 0;
#X connect 53 0 54 0;
#X connect 53 0 55 0;
#X connect 53 0 56 0;
#X connect 54 0 28 0;
#X connect 55 0 27 0;
#X connect 56 0 24 0;
#X connect 57 0 58 0;
#X connect 57 0 59 0;
#X connect 58 0 25 0;
#X connect 59 0 26 0;
#X connect 60 0 19 0;
#X connect 61 0 20 0;
#X connect 62 0 21 0;
#X connect 63 0 23 0;
#X connect 64 0 16 0;
#X connect 65 0 17 0;
#X connect 66 0 36 0;
#X connect 66 0 175 0;
#X connect 67 0 31 0;
#X connect 68 0 29 0;
#X connect 69 0 22 0;
#X connect 70 0 18 0;
#X connect 71 0 34 0;
#X connect 71 0 49 0;
#X connect 72 0 92 0;
#X connect 72 0 95 0;
#X connect 74 0 75 0;
#X connect 75 0 73 0;
#X connect 77 0 33 0;
#X connect 78 0 42 0;
#X connect 79 0 37 0;
#X connect 80 0 35 0;
#X connect 81 0 39 0;
#X connect 82 0 33 0;
#X connect 83 0 19 0;
#X connect 83 0 20 0;
#X connect 83 0 21 0;
#X connect 83 0 23 0;
#X connect 83 0 16 0;
#X connect 83 0 17 0;
#X connect 84 0 28 0;
#X connect 84 0 27 0;
#X connect 84 0 24 0;
#X connect 85 0 26 0;
#X connect 85 0 25 0;
#X connect 86 0 31 0;
#X connect 86 0 29 0;
#X connect 86 0 22 0;
#X connect 86 0 18 0;
#X connect 87 0 45 0;
#X connect 87 0 46 0;
#X connect 87 0 47 0;
#X connect 88 0 42 0;
#X connect 89 0 37 0;
#X connect 90 0 35 0;
#X connect 91 0 39 0;
#X connect 92 0 93 0;
#X connect 92 0 94 0;
#X connect 93 0 76 0;
#X connect 94 0 75 0;
#X connect 95 0 96 0;
#X connect 95 0 117 0;
#X connect 96 0 135 0;
#X connect 98 0 100 0;
#X connect 98 1 101 0;
#X connect 98 2 102 0;
#X connect 98 3 103 0;
#X connect 98 4 104 0;
#X connect 98 5 105 0;
#X connect 98 6 106 0;
#X connect 98 7 107 0;
#X connect 98 8 108 0;
#X connect 98 9 109 0;
#X connect 98 10 110 0;
#X connect 98 11 111 0;
#X connect 98 12 112 0;
#X connect 98 13 113 0;
#X connect 98 14 114 0;
#X connect 98 15 115 0;
#X connect 99 0 98 0;
#X connect 100 0 116 1;
#X connect 101 0 116 1;
#X connect 102 0 116 1;
#X connect 103 0 116 1;
#X connect 104 0 116 1;
#X connect 105 0 116 1;
#X connect 106 0 116 1;
#X connect 107 0 116 1;
#X connect 108 0 116 1;
#X connect 109 0 116 1;
#X connect 110 0 116 1;
#X connect 111 0 116 1;
#X connect 112 0 116 1;
#X connect 113 0 116 1;
#X connect 114 0 116 1;
#X connect 115 0 116 1;
#X connect 117 0 134 0;
#X connect 118 0 158 0;
#X connect 119 0 161 0;
#X connect 120 0 162 0;
#X connect 121 0 163 0;
#X connect 122 0 164 0;
#X connect 123 0 165 0;
#X connect 124 0 166 0;
#X connect 125 0 167 0;
#X connect 126 0 168 0;
#X connect 127 0 169 0;
#X connect 128 0 170 0;
#X connect 129 0 171 0;
#X connect 130 0 172 0;
#X connect 131 0 174 0;
#X connect 132 0 173 0;
#X connect 133 0 116 0;
#X connect 134 0 133 0;
#X connect 135 0 97 0;
#X connect 142 0 136 0;
#X connect 142 1 137 0;
#X connect 143 0 136 0;
#X connect 143 1 137 0;
#X connect 144 0 136 0;
#X connect 144 1 137 0;
#X connect 145 0 136 0;
#X connect 145 1 137 0;
#X connect 146 0 136 0;
#X connect 146 1 137 0;
#X connect 147 0 136 0;
#X connect 147 1 137 0;
#X connect 148 0 139 0;
#X connect 148 1 138 0;
#X connect 149 0 139 0;
#X connect 149 1 138 0;
#X connect 150 0 139 0;
#X connect 150 1 138 0;
#X connect 151 0 139 0;
#X connect 151 1 138 0;
#X connect 152 0 139 0;
#X connect 152 1 138 0;
#X connect 153 0 139 0;
#X connect 153 1 138 0;
#X connect 154 0 141 0;
#X connect 154 1 140 0;
#X connect 155 0 141 0;
#X connect 155 1 140 0;
#X connect 156 0 141 0;
#X connect 156 1 140 0;
#X connect 157 0 141 0;
#X connect 157 1 140 0;
#X connect 158 0 142 1;
#X connect 159 0 144 1;
#X connect 160 0 159 0;
#X connect 161 0 143 1;
#X connect 162 0 145 1;
#X connect 163 0 146 1;
#X connect 164 0 147 1;
#X connect 165 0 148 1;
#X connect 166 0 149 1;
#X connect 167 0 150 1;
#X connect 168 0 151 1;
#X connect 169 0 152 1;
#X connect 170 0 153 1;
#X connect 171 0 154 1;
#X connect 172 0 155 1;
#X connect 173 0 156 1;
#X connect 174 0 157 1;
#X connect 175 0 60 0;
#X connect 175 0 61 0;
#X connect 175 0 62 0;
#X connect 175 0 63 0;
#X connect 175 0 64 0;
#X connect 175 0 65 0;
#X connect 176 0 67 0;
#X connect 176 0 68 0;
#X connect 176 0 69 0;
#X connect 176 0 70 0;
#X restore 1132 124 pd insects;
#X obj 605 31 r oscAlarm;
#X obj 605 121 tgl 15 0 empty empty empty 17 7 0 10 -262144 -1 -1 0
1;
#X obj 13 26 r oscAccessDen;
#X obj 699 53 change;
#X floatatom 699 83 5 0 0 0 - - -;
#X obj 699 115 tgl 15 0 empty empty empty 17 7 0 10 -262144 -1 -1 0
1;
#X obj 700 27 r oscHumming;
#X obj 107 27 r oscCardPickUp;
#X obj 210 27 r oscDeactivation;
#X obj 322 28 r oscElevator;
#X obj 411 29 r oscLaser;
#X obj 1132 55 change;
#X floatatom 1132 79 5 0 0 0 - - -;
#X obj 488 30 r oscStep;
#X obj 1132 27 r oscInsects;
#X obj 1132 101 tgl 15 0 empty empty empty 17 7 0 10 -262144 -1 -1
0 1;
#X floatatom 605 84 5 0 0 0 - - -;
#X obj 605 58 change;
#X obj 811 53 change;
#X floatatom 811 82 5 0 0 0 - - -;
#X obj 811 117 tgl 15 0 empty empty empty 17 7 0 10 -262144 -1 -1 0
1;
#X obj 811 529 dac~ 1 2;
#X obj 627 221 vsl 15 128 0 1 0 0 empty empty empty 0 -9 0 10 -262144
-1 -1 12700 1;
#X obj 733 211 vsl 15 128 0 3 0 0 empty empty empty 0 -9 0 10 -262144
-1 -1 0 1;
#X obj 700 350 *~ 0.2;
#X obj 713 398 r panHumming;
#X obj 811 460 pan-cos;
#X obj 827 213 vsl 15 128 0 1 0 0 empty empty empty 0 -9 0 10 -262144
-1 -1 635 1;
#X obj 811 352 *~ 0.2;
#X obj 1179 426 *~ 0.2;
#X obj 1140 392 *~ 0.2;
#X obj 1189 391 *~ 0.2;
#X obj 1231 425 *~ 0.2;
#X obj 1282 427 *~ 0.2;
#X obj 1235 391 *~ 0.2;
#X obj 1277 121 vsl 15 128 0 1 0 0 empty empty empty 0 -9 0 10 -262144
-1 -1 2540 1;
#X obj 1177 521 dac~ 1 2;
#X obj 46 232 vsl 15 128 0 1 0 0 empty empty empty 0 -9 0 10 -262144
-1 -1 3175 1;
#X obj 13 372 *~ 0.2;
#X obj 140 234 vsl 15 128 0 1 0 0 empty empty empty 0 -9 0 10 -262144
-1 -1 6350 1;
#X obj 107 374 *~ 0.2;
#X obj 243 237 vsl 15 128 0 1 0 0 empty empty empty 0 -9 0 10 -262144
-1 -1 1270 1;
#X obj 210 375 *~ 0.2;
#X obj 357 238 vsl 15 128 0 1 0 0 empty empty empty 0 -9 0 10 -262144
-1 -1 12700 1;
#X obj 324 377 *~ 0.2;
#X obj 438 239 vsl 15 128 0 1 0 0 empty empty empty 0 -9 0 10 -262144
-1 -1 12700 1;
#X obj 411 378 *~ 0.2;
#X obj 511 236 vsl 15 128 0 1 0 0 empty empty empty 0 -9 0 10 -262144
-1 -1 3175 1;
#X obj 488 375 *~ 0.2;
#X obj 263 497 dac~ 1 2;
#X obj 1224 121 vsl 15 128 0 1 0 0 empty empty empty 0 -9 0 10 -262144
-1 -1 6350 1;
#X obj 1250 120 vsl 15 128 0 1 0 0 empty empty empty 0 -9 0 10 -262144
-1 -1 3810 1;
#X obj 1222 41 r ampInsects0;
#X obj 1232 66 r ampInsects1;
#X obj 1251 90 r ampInsects2;
#X obj 1074 691 s ampInsects0;
#X obj 1164 693 s ampInsects1;
#X obj 1254 693 s ampInsects2;
#X msg 1074 662 0.5;
#X msg 1164 663 0.3;
#X msg 1254 662 0.2;
#X obj 776 563 loadbang;
#X obj 646 626 s panAlarm;
#X obj 804 638 s panHumming;
#X msg 804 609 25;
#X msg 886 608 0.05;
#X obj 260 616 loadbang;
#X msg 203 660 0.1;
#X obj 39 187 r ampAccs;
#X obj 50 693 s ampAccs;
#X obj 119 186 r ampCard;
#X obj 126 692 s ampCard;
#X obj 225 191 r ampDeact;
#X obj 203 691 s ampDeact;
#X obj 332 197 r ampElev;
#X obj 288 691 s ampElev;
#X obj 420 196 r ampLaser;
#X obj 370 691 s ampLaser;
#X obj 521 207 r ampSteps;
#X msg 460 660 0.25;
#X obj 460 691 s ampSteps;
#X obj 916 54 change;
#X floatatom 916 83 5 0 0 0 - - -;
#X obj 916 118 tgl 15 0 empty empty empty 17 7 0 10 -262144 -1 -1 0
1;
#X obj 937 214 vsl 15 128 0 1 0 0 empty empty empty 0 -9 0 10 -262144
-1 -1 635 1;
#X obj 916 353 *~ 0.2;
#X obj 1022 55 change;
#X floatatom 1022 84 5 0 0 0 - - -;
#X obj 1022 119 tgl 15 0 empty empty empty 17 7 0 10 -262144 -1 -1
0 1;
#X obj 1045 215 vsl 15 128 0 1 0 0 empty empty empty 0 -9 0 10 -262144
-1 -1 635 1;
#X obj 1022 354 *~ 0.2;
#X obj 811 25 r oscRobots1;
#X obj 916 26 r oscRobots2;
#X obj 1022 27 r oscRobots3;
#X obj 827 186 r ampRobots1;
#X obj 937 187 r ampRobots2;
#X obj 1045 188 r ampRobots3;
#X obj 825 396 r panRobots1;
#X obj 925 396 r panRobots2;
#X obj 1030 396 r panRobots3;
#X obj 897 637 s ampRobots1;
#X obj 982 638 s panRobots1;
#X obj 889 660 s ampRobots2;
#X obj 879 682 s ampRobots3;
#X obj 978 662 s panRobots2;
#X obj 971 683 s panRobots3;
#N canvas 391 23 883 801 robots1 0;
#X obj 173 636 +~;
#X obj 173 658 cos~;
#X obj 189 479 phasor~;
#X obj 252 587 osc~;
#X obj 189 248 random 1000;
#X obj 189 270 / 1000;
#X obj 189 414 line~;
#X obj 189 391 pack f f;
#X obj 189 293 t f b;
#X obj 240 323 random 2;
#X obj 240 369 *;
#X obj 157 684 *~;
#X obj 82 709 lop~ 10000;
#X obj 82 731 lop~ 10000;
#X obj 82 753 hip~ 100;
#X obj 82 775 hip~ 100;
#X obj 252 561 *~;
#X obj 252 610 *~;
#X obj 173 516 *~;
#X obj 140 480 +~ 100;
#X obj 55 184 s period;
#X obj 256 347 r period;
#X obj 57 391 line~;
#X obj 57 369 pack f f;
#X obj 108 301 random 2;
#X obj 108 347 *;
#X obj 124 325 r period;
#X obj 126 247 s change;
#X obj 57 228 r change;
#X obj 22 300 random 9000;
#X obj 57 249 random 3;
#X obj 57 271 sel 0;
#X obj 46 645 line~;
#X obj 46 623 pack f f;
#X obj 97 534 random 2;
#X obj 97 580 *;
#X obj 113 558 r period;
#X obj 46 461 r change;
#X obj 46 504 sel 0;
#X obj 11 533 random 2;
#X obj 46 482 random 2;
#X obj 289 563 line~;
#X obj 289 541 pack f f;
#X obj 340 473 random 2;
#X obj 340 519 *;
#X obj 356 497 r period;
#X obj 289 400 r change;
#X obj 289 443 sel 0;
#X obj 289 586 +~ 0.2;
#X obj 254 472 random 100;
#X obj 254 495 / 200;
#X obj 289 421 random 4;
#X obj 379 416 line~;
#X obj 379 394 pack f f;
#X obj 430 329 random 2;
#X obj 430 372 *;
#X obj 446 350 r period;
#X obj 379 259 r change;
#X obj 379 302 sel 0;
#X obj 344 328 random 800;
#X obj 379 438 +~ 20;
#X obj 379 280 random 4;
#X obj 189 450 *~ 0.6;
#X obj 233 129 r period;
#X obj 189 226 metro;
#X obj 298 42 r change;
#X obj 298 63 random 3;
#X obj 298 85 sel 0;
#X obj 298 106 random 2;
#X obj 298 127 + 1;
#X obj 298 171 /;
#X obj 298 148 t b f;
#X obj 189 164 loadbang;
#X obj 189 184 del 100;
#X msg 189 205 1;
#X obj 97 601 + 3;
#X msg 54 145 160;
#X obj 54 98 loadbang;
#X obj 355 605 inlet;
#X obj 257 783 hsl 128 15 0 1 0 0 empty empty empty -2 -8 0 10 -262144
-1 -1 0 1;
#X obj 355 628 tgl 15 0 empty empty empty 17 7 0 10 -262144 -1 -1 0
1;
#X floatatom 355 650 5 0 0 0 - - -;
#X obj 355 680 select 1;
#X obj 293 680 select 0;
#X obj 293 743 line;
#X msg 293 713 0 1000;
#X obj 232 713 loadbang;
#X msg 232 747 0;
#X obj 157 798 *~ 0.06;
#X msg 355 705 0.1 1000;
#X obj 157 831 outlet~;
#X connect 0 0 1 0;
#X connect 1 0 11 1;
#X connect 2 0 18 1;
#X connect 3 0 17 0;
#X connect 4 0 5 0;
#X connect 5 0 8 0;
#X connect 6 0 62 0;
#X connect 7 0 6 0;
#X connect 8 0 7 0;
#X connect 8 1 9 0;
#X connect 9 0 10 0;
#X connect 10 0 7 1;
#X connect 11 0 12 0;
#X connect 12 0 13 0;
#X connect 13 0 14 0;
#X connect 14 0 15 0;
#X connect 15 0 88 0;
#X connect 16 0 3 0;
#X connect 17 0 0 1;
#X connect 18 0 0 0;
#X connect 19 0 18 0;
#X connect 21 0 10 1;
#X connect 22 0 19 0;
#X connect 23 0 22 0;
#X connect 24 0 25 0;
#X connect 25 0 23 1;
#X connect 26 0 25 1;
#X connect 28 0 30 0;
#X connect 29 0 23 0;
#X connect 30 0 31 0;
#X connect 31 0 29 0;
#X connect 31 0 24 0;
#X connect 32 0 11 0;
#X connect 33 0 32 0;
#X connect 34 0 35 0;
#X connect 35 0 75 0;
#X connect 36 0 35 1;
#X connect 37 0 40 0;
#X connect 38 0 34 0;
#X connect 38 0 39 0;
#X connect 39 0 33 0;
#X connect 40 0 38 0;
#X connect 41 0 48 0;
#X connect 42 0 41 0;
#X connect 43 0 44 0;
#X connect 44 0 42 1;
#X connect 45 0 44 1;
#X connect 46 0 51 0;
#X connect 47 0 43 0;
#X connect 47 0 49 0;
#X connect 48 0 17 1;
#X connect 49 0 50 0;
#X connect 50 0 42 0;
#X connect 51 0 47 0;
#X connect 52 0 60 0;
#X connect 53 0 52 0;
#X connect 54 0 55 0;
#X connect 55 0 53 1;
#X connect 56 0 55 1;
#X connect 57 0 61 0;
#X connect 58 0 54 0;
#X connect 58 0 59 0;
#X connect 59 0 53 0;
#X connect 60 0 16 1;
#X connect 61 0 58 0;
#X connect 62 0 2 0;
#X connect 62 0 16 0;
#X connect 63 0 70 0;
#X connect 64 0 4 0;
#X connect 64 0 27 0;
#X connect 65 0 66 0;
#X connect 66 0 67 0;
#X connect 67 0 68 0;
#X connect 68 0 69 0;
#X connect 69 0 71 0;
#X connect 70 0 64 1;
#X connect 71 0 70 0;
#X connect 71 1 70 1;
#X connect 72 0 73 0;
#X connect 73 0 74 0;
#X connect 74 0 64 0;
#X connect 75 0 33 1;
#X connect 76 0 20 0;
#X connect 77 0 76 0;
#X connect 78 0 80 0;
#X connect 79 0 88 1;
#X connect 80 0 81 0;
#X connect 81 0 82 0;
#X connect 81 0 83 0;
#X connect 82 0 89 0;
#X connect 83 0 85 0;
#X connect 84 0 79 0;
#X connect 85 0 84 0;
#X connect 86 0 87 0;
#X connect 87 0 79 0;
#X connect 88 0 90 0;
#X connect 89 0 84 0;
#X restore 811 139 pd robots1;
#N canvas 81 23 849 800 robots2 0;
#X obj 173 636 +~;
#X obj 173 658 cos~;
#X obj 189 479 phasor~;
#X obj 252 587 osc~;
#X obj 189 248 random 1000;
#X obj 189 270 / 1000;
#X obj 189 414 line~;
#X obj 189 391 pack f f;
#X obj 189 293 t f b;
#X obj 240 323 random 2;
#X obj 240 369 *;
#X obj 157 684 *~;
#X obj 82 709 lop~ 10000;
#X obj 82 731 lop~ 10000;
#X obj 82 753 hip~ 100;
#X obj 82 775 hip~ 100;
#X obj 252 561 *~;
#X obj 252 610 *~;
#X obj 173 516 *~;
#X obj 140 480 +~ 100;
#X obj 55 184 s period;
#X obj 256 347 r period;
#X obj 57 391 line~;
#X obj 57 369 pack f f;
#X obj 108 301 random 2;
#X obj 108 347 *;
#X obj 124 325 r period;
#X obj 126 247 s change;
#X obj 57 228 r change;
#X obj 22 300 random 9000;
#X obj 57 249 random 3;
#X obj 57 271 sel 0;
#X obj 46 645 line~;
#X obj 46 623 pack f f;
#X obj 97 534 random 2;
#X obj 97 580 *;
#X obj 113 558 r period;
#X obj 46 461 r change;
#X obj 46 504 sel 0;
#X obj 11 533 random 2;
#X obj 46 482 random 2;
#X obj 289 563 line~;
#X obj 289 541 pack f f;
#X obj 340 473 random 2;
#X obj 340 519 *;
#X obj 356 497 r period;
#X obj 289 400 r change;
#X obj 289 443 sel 0;
#X obj 289 586 +~ 0.2;
#X obj 254 472 random 100;
#X obj 254 495 / 200;
#X obj 289 421 random 4;
#X obj 379 416 line~;
#X obj 379 394 pack f f;
#X obj 430 329 random 2;
#X obj 430 372 *;
#X obj 446 350 r period;
#X obj 379 259 r change;
#X obj 379 302 sel 0;
#X obj 344 328 random 800;
#X obj 379 438 +~ 20;
#X obj 379 280 random 4;
#X obj 189 450 *~ 0.6;
#X obj 233 129 r period;
#X obj 189 226 metro;
#X obj 298 42 r change;
#X obj 298 63 random 3;
#X obj 298 85 sel 0;
#X obj 298 106 random 2;
#X obj 298 127 + 1;
#X obj 298 171 /;
#X obj 298 148 t b f;
#X obj 189 164 loadbang;
#X obj 189 184 del 100;
#X msg 189 205 1;
#X obj 97 601 + 3;
#X msg 54 145 160;
#X obj 54 98 loadbang;
#X obj 355 605 inlet;
#X obj 257 783 hsl 128 15 0 1 0 0 empty empty empty -2 -8 0 10 -262144
-1 -1 0 1;
#X obj 355 628 tgl 15 0 empty empty empty 17 7 0 10 -262144 -1 -1 0
1;
#X floatatom 355 650 5 0 0 0 - - -;
#X obj 355 680 select 1;
#X obj 293 680 select 0;
#X obj 293 743 line;
#X msg 293 713 0 1000;
#X obj 232 713 loadbang;
#X msg 232 747 0;
#X obj 157 798 *~ 0.06;
#X msg 355 705 0.1 1000;
#X obj 157 831 outlet~;
#X connect 0 0 1 0;
#X connect 1 0 11 1;
#X connect 2 0 18 1;
#X connect 3 0 17 0;
#X connect 4 0 5 0;
#X connect 5 0 8 0;
#X connect 6 0 62 0;
#X connect 7 0 6 0;
#X connect 8 0 7 0;
#X connect 8 1 9 0;
#X connect 9 0 10 0;
#X connect 10 0 7 1;
#X connect 11 0 12 0;
#X connect 12 0 13 0;
#X connect 13 0 14 0;
#X connect 14 0 15 0;
#X connect 15 0 88 0;
#X connect 16 0 3 0;
#X connect 17 0 0 1;
#X connect 18 0 0 0;
#X connect 19 0 18 0;
#X connect 21 0 10 1;
#X connect 22 0 19 0;
#X connect 23 0 22 0;
#X connect 24 0 25 0;
#X connect 25 0 23 1;
#X connect 26 0 25 1;
#X connect 28 0 30 0;
#X connect 29 0 23 0;
#X connect 30 0 31 0;
#X connect 31 0 29 0;
#X connect 31 0 24 0;
#X connect 32 0 11 0;
#X connect 33 0 32 0;
#X connect 34 0 35 0;
#X connect 35 0 75 0;
#X connect 36 0 35 1;
#X connect 37 0 40 0;
#X connect 38 0 34 0;
#X connect 38 0 39 0;
#X connect 39 0 33 0;
#X connect 40 0 38 0;
#X connect 41 0 48 0;
#X connect 42 0 41 0;
#X connect 43 0 44 0;
#X connect 44 0 42 1;
#X connect 45 0 44 1;
#X connect 46 0 51 0;
#X connect 47 0 43 0;
#X connect 47 0 49 0;
#X connect 48 0 17 1;
#X connect 49 0 50 0;
#X connect 50 0 42 0;
#X connect 51 0 47 0;
#X connect 52 0 60 0;
#X connect 53 0 52 0;
#X connect 54 0 55 0;
#X connect 55 0 53 1;
#X connect 56 0 55 1;
#X connect 57 0 61 0;
#X connect 58 0 54 0;
#X connect 58 0 59 0;
#X connect 59 0 53 0;
#X connect 60 0 16 1;
#X connect 61 0 58 0;
#X connect 62 0 2 0;
#X connect 62 0 16 0;
#X connect 63 0 70 0;
#X connect 64 0 4 0;
#X connect 64 0 27 0;
#X connect 65 0 66 0;
#X connect 66 0 67 0;
#X connect 67 0 68 0;
#X connect 68 0 69 0;
#X connect 69 0 71 0;
#X connect 70 0 64 1;
#X connect 71 0 70 0;
#X connect 71 1 70 1;
#X connect 72 0 73 0;
#X connect 73 0 74 0;
#X connect 74 0 64 0;
#X connect 75 0 33 1;
#X connect 76 0 20 0;
#X connect 77 0 76 0;
#X connect 78 0 80 0;
#X connect 79 0 88 1;
#X connect 80 0 81 0;
#X connect 81 0 82 0;
#X connect 81 0 83 0;
#X connect 82 0 89 0;
#X connect 83 0 85 0;
#X connect 84 0 79 0;
#X connect 85 0 84 0;
#X connect 86 0 87 0;
#X connect 87 0 79 0;
#X connect 88 0 90 0;
#X connect 89 0 84 0;
#X restore 916 140 pd robots2;
#N canvas 553 23 849 800 robots3 0;
#X obj 173 636 +~;
#X obj 173 658 cos~;
#X obj 189 479 phasor~;
#X obj 252 587 osc~;
#X obj 189 248 random 1000;
#X obj 189 270 / 1000;
#X obj 189 414 line~;
#X obj 189 391 pack f f;
#X obj 189 293 t f b;
#X obj 240 323 random 2;
#X obj 240 369 *;
#X obj 157 684 *~;
#X obj 82 709 lop~ 10000;
#X obj 82 731 lop~ 10000;
#X obj 82 753 hip~ 100;
#X obj 82 775 hip~ 100;
#X obj 252 561 *~;
#X obj 252 610 *~;
#X obj 173 516 *~;
#X obj 140 480 +~ 100;
#X obj 55 184 s period;
#X obj 256 347 r period;
#X obj 57 391 line~;
#X obj 57 369 pack f f;
#X obj 108 301 random 2;
#X obj 108 347 *;
#X obj 124 325 r period;
#X obj 126 247 s change;
#X obj 57 228 r change;
#X obj 22 300 random 9000;
#X obj 57 249 random 3;
#X obj 57 271 sel 0;
#X obj 46 645 line~;
#X obj 46 623 pack f f;
#X obj 97 534 random 2;
#X obj 97 580 *;
#X obj 113 558 r period;
#X obj 46 461 r change;
#X obj 46 504 sel 0;
#X obj 11 533 random 2;
#X obj 46 482 random 2;
#X obj 289 563 line~;
#X obj 289 541 pack f f;
#X obj 340 473 random 2;
#X obj 340 519 *;
#X obj 356 497 r period;
#X obj 289 400 r change;
#X obj 289 443 sel 0;
#X obj 289 586 +~ 0.2;
#X obj 254 472 random 100;
#X obj 254 495 / 200;
#X obj 289 421 random 4;
#X obj 379 416 line~;
#X obj 379 394 pack f f;
#X obj 430 329 random 2;
#X obj 430 372 *;
#X obj 446 350 r period;
#X obj 379 259 r change;
#X obj 379 302 sel 0;
#X obj 344 328 random 800;
#X obj 379 438 +~ 20;
#X obj 379 280 random 4;
#X obj 189 450 *~ 0.6;
#X obj 233 129 r period;
#X obj 189 226 metro;
#X obj 298 42 r change;
#X obj 298 63 random 3;
#X obj 298 85 sel 0;
#X obj 298 106 random 2;
#X obj 298 127 + 1;
#X obj 298 171 /;
#X obj 298 148 t b f;
#X obj 189 164 loadbang;
#X obj 189 184 del 100;
#X msg 189 205 1;
#X obj 97 601 + 3;
#X msg 54 145 160;
#X obj 54 98 loadbang;
#X obj 355 605 inlet;
#X obj 257 783 hsl 128 15 0 1 0 0 empty empty empty -2 -8 0 10 -262144
-1 -1 0 1;
#X obj 355 628 tgl 15 0 empty empty empty 17 7 0 10 -262144 -1 -1 0
1;
#X floatatom 355 650 5 0 0 0 - - -;
#X obj 355 680 select 1;
#X obj 293 680 select 0;
#X obj 293 743 line;
#X msg 293 713 0 1000;
#X obj 232 713 loadbang;
#X msg 232 747 0;
#X obj 157 798 *~ 0.06;
#X msg 355 705 0.1 1000;
#X obj 157 831 outlet~;
#X connect 0 0 1 0;
#X connect 1 0 11 1;
#X connect 2 0 18 1;
#X connect 3 0 17 0;
#X connect 4 0 5 0;
#X connect 5 0 8 0;
#X connect 6 0 62 0;
#X connect 7 0 6 0;
#X connect 8 0 7 0;
#X connect 8 1 9 0;
#X connect 9 0 10 0;
#X connect 10 0 7 1;
#X connect 11 0 12 0;
#X connect 12 0 13 0;
#X connect 13 0 14 0;
#X connect 14 0 15 0;
#X connect 15 0 88 0;
#X connect 16 0 3 0;
#X connect 17 0 0 1;
#X connect 18 0 0 0;
#X connect 19 0 18 0;
#X connect 21 0 10 1;
#X connect 22 0 19 0;
#X connect 23 0 22 0;
#X connect 24 0 25 0;
#X connect 25 0 23 1;
#X connect 26 0 25 1;
#X connect 28 0 30 0;
#X connect 29 0 23 0;
#X connect 30 0 31 0;
#X connect 31 0 29 0;
#X connect 31 0 24 0;
#X connect 32 0 11 0;
#X connect 33 0 32 0;
#X connect 34 0 35 0;
#X connect 35 0 75 0;
#X connect 36 0 35 1;
#X connect 37 0 40 0;
#X connect 38 0 34 0;
#X connect 38 0 39 0;
#X connect 39 0 33 0;
#X connect 40 0 38 0;
#X connect 41 0 48 0;
#X connect 42 0 41 0;
#X connect 43 0 44 0;
#X connect 44 0 42 1;
#X connect 45 0 44 1;
#X connect 46 0 51 0;
#X connect 47 0 43 0;
#X connect 47 0 49 0;
#X connect 48 0 17 1;
#X connect 49 0 50 0;
#X connect 50 0 42 0;
#X connect 51 0 47 0;
#X connect 52 0 60 0;
#X connect 53 0 52 0;
#X connect 54 0 55 0;
#X connect 55 0 53 1;
#X connect 56 0 55 1;
#X connect 57 0 61 0;
#X connect 58 0 54 0;
#X connect 58 0 59 0;
#X connect 59 0 53 0;
#X connect 60 0 16 1;
#X connect 61 0 58 0;
#X connect 62 0 2 0;
#X connect 62 0 16 0;
#X connect 63 0 70 0;
#X connect 64 0 4 0;
#X connect 64 0 27 0;
#X connect 65 0 66 0;
#X connect 66 0 67 0;
#X connect 67 0 68 0;
#X connect 68 0 69 0;
#X connect 69 0 71 0;
#X connect 70 0 64 1;
#X connect 71 0 70 0;
#X connect 71 1 70 1;
#X connect 72 0 73 0;
#X connect 73 0 74 0;
#X connect 74 0 64 0;
#X connect 75 0 33 1;
#X connect 76 0 20 0;
#X connect 77 0 76 0;
#X connect 78 0 80 0;
#X connect 79 0 88 1;
#X connect 80 0 81 0;
#X connect 81 0 82 0;
#X connect 81 0 83 0;
#X connect 82 0 89 0;
#X connect 83 0 85 0;
#X connect 84 0 79 0;
#X connect 85 0 84 0;
#X connect 86 0 87 0;
#X connect 87 0 79 0;
#X connect 88 0 90 0;
#X connect 89 0 84 0;
#X restore 1022 141 pd robots3;
#X obj 700 458 pan-cos;
#X obj 916 461 pan-cos;
#X obj 1022 463 pan-cos;
#X msg 976 607 25;
#X obj 605 362 *~;
#X obj 627 194 r ampAlarm;
#X obj 570 627 s ampAlarm;
#X obj 605 448 pan-cos;
#X obj 627 394 r panAlarm;
#X obj 630 420 hsl 64 15 0 50 0 0 empty empty empty -2 -8 0 10 -262144
-1 -1 3150 1;
#X obj 716 426 hsl 64 15 0 50 0 0 empty empty empty -2 -8 0 10 -262144
-1 -1 3150 1;
#X obj 827 425 hsl 64 15 0 50 0 0 empty empty empty -2 -8 0 10 -262144
-1 -1 3150 1;
#X obj 928 425 hsl 64 15 0 50 0 0 empty empty empty -2 -8 0 10 -262144
-1 -1 3150 1;
#X obj 1033 423 hsl 64 15 0 50 0 0 empty empty empty -2 -8 0 10 -262144
-1 -1 3150 1;
#X msg 370 661 1;
#X msg 126 662 0.5;
#X msg 50 664 0.25;
#X msg 570 598 1;
#X msg 646 596 25;
#X msg 288 662 1;
#N canvas 43 37 742 467 ampHumming 0;
#X obj 90 137 r ampLaserFance1;
#X obj 197 410 outlet;
#X obj 110 162 r ampLaserFance2;
#X obj 256 136 r ampLaserFance3;
#X obj 266 159 r ampLaserFance4;
#X obj 311 182 r ampLaserFance5;
#X obj 324 202 r ampLaserFance6;
#X obj 97 207 max;
#X floatatom 198 383 5 0 0 0 - - -;
#X msg 198 304 \$1 1000;
#X obj 198 330 line;
#X obj 198 280 * 1000;
#X obj 198 355 / 1000;
#X obj 248 210 max;
#X obj 298 225 max;
#X obj 198 254 max;
#X obj 235 234 max;
#X obj 235 177 bng 15 250 50 0 empty empty empty 17 7 0 10 -262144
-1 -1;
#X obj 202 101 r hummingbang;
#X connect 0 0 7 0;
#X connect 2 0 7 1;
#X connect 3 0 13 0;
#X connect 4 0 13 1;
#X connect 5 0 14 0;
#X connect 6 0 14 1;
#X connect 7 0 15 0;
#X connect 8 0 1 0;
#X connect 9 0 10 0;
#X connect 10 0 12 0;
#X connect 11 0 9 0;
#X connect 12 0 8 0;
#X connect 13 0 16 0;
#X connect 14 0 16 1;
#X connect 15 0 11 0;
#X connect 16 0 15 1;
#X connect 17 0 7 0;
#X connect 17 0 13 0;
#X connect 17 0 14 0;
#X connect 17 0 16 0;
#X connect 17 0 15 0;
#X connect 18 0 17 0;
#X restore 719 185 pd ampHumming;
#X obj 660 673 s ampLaserFance1;
#X obj 665 696 s ampLaserFance2;
#X obj 680 720 s ampLaserFance3;
#X obj 765 672 s ampLaserFance4;
#X obj 769 695 s ampLaserFance5;
#X obj 784 719 s ampLaserFance6;
#X msg 746 619 0;
#X obj 490 119 tgl 15 0 empty empty empty 17 7 0 10 -262144 -1 -1 0
1;
#X floatatom 490 82 5 0 0 0 - - -;
#X obj 490 56 change;
#X msg 551 659 0;
#X obj 523 128 r revSteps;
#X obj 551 692 s revSteps;
#X connect 0 0 128 0;
#X connect 1 0 2 0;
#X connect 2 0 53 0;
#X connect 3 0 39 0;
#X connect 4 0 55 0;
#X connect 5 0 4 0;
#X connect 6 0 73 0;
#X connect 6 0 74 0;
#X connect 6 0 75 0;
#X connect 7 0 57 0;
#X connect 8 0 7 0;
#X connect 9 0 10 0;
#X connect 10 0 59 0;
#X connect 11 0 61 0;
#X connect 12 0 11 0;
#X connect 13 0 63 0;
#X connect 14 0 45 0;
#X connect 14 1 44 0;
#X connect 14 2 47 0;
#X connect 14 3 46 0;
#X connect 14 4 49 0;
#X connect 14 5 48 0;
#X connect 15 0 32 0;
#X connect 16 0 0 0;
#X connect 17 0 1 0;
#X connect 18 0 19 0;
#X connect 19 0 20 0;
#X connect 20 0 3 0;
#X connect 21 0 18 0;
#X connect 22 0 5 0;
#X connect 23 0 8 0;
#X connect 24 0 9 0;
#X connect 25 0 12 0;
#X connect 26 0 27 0;
#X connect 27 0 30 0;
#X connect 28 0 154 0;
#X connect 29 0 26 0;
#X connect 30 0 14 0;
#X connect 31 0 16 0;
#X connect 32 0 31 0;
#X connect 33 0 34 0;
#X connect 34 0 35 0;
#X connect 35 0 121 0;
#X connect 37 0 128 1;
#X connect 38 0 39 1;
#X connect 39 0 124 0;
#X connect 40 0 134 0;
#X connect 41 0 36 0;
#X connect 41 1 36 1;
#X connect 42 0 43 1;
#X connect 43 0 41 0;
#X connect 44 0 51 1;
#X connect 45 0 51 0;
#X connect 46 0 51 1;
#X connect 47 0 51 0;
#X connect 48 0 51 1;
#X connect 49 0 51 0;
#X connect 50 0 49 1;
#X connect 50 0 48 1;
#X connect 52 0 53 1;
#X connect 53 0 64 0;
#X connect 53 0 64 1;
#X connect 54 0 55 1;
#X connect 55 0 64 0;
#X connect 55 0 64 1;
#X connect 56 0 57 1;
#X connect 57 0 64 0;
#X connect 57 0 64 1;
#X connect 58 0 59 1;
#X connect 59 0 64 0;
#X connect 59 0 64 1;
#X connect 60 0 61 1;
#X connect 61 0 64 0;
#X connect 61 0 64 1;
#X connect 62 0 63 1;
#X connect 63 0 64 0;
#X connect 63 0 64 1;
#X connect 65 0 45 1;
#X connect 65 0 44 1;
#X connect 66 0 47 1;
#X connect 66 0 46 1;
#X connect 67 0 65 0;
#X connect 68 0 66 0;
#X connect 69 0 50 0;
#X connect 73 0 70 0;
#X connect 74 0 71 0;
#X connect 75 0 72 0;
#X connect 76 0 141 0;
#X connect 76 0 142 0;
#X connect 76 0 151 0;
#X connect 76 0 79 0;
#X connect 76 0 80 0;
#X connect 76 0 127 0;
#X connect 79 0 78 0;
#X connect 80 0 115 0;
#X connect 80 0 117 0;
#X connect 80 0 118 0;
#X connect 81 0 140 0;
#X connect 81 0 139 0;
#X connect 81 0 82 0;
#X connect 81 0 143 0;
#X connect 81 0 138 0;
#X connect 81 0 94 0;
#X connect 81 0 155 0;
#X connect 82 0 88 0;
#X connect 83 0 52 0;
#X connect 85 0 54 0;
#X connect 87 0 56 0;
#X connect 89 0 58 0;
#X connect 91 0 60 0;
#X connect 93 0 62 0;
#X connect 94 0 95 0;
#X connect 96 0 97 0;
#X connect 97 0 98 0;
#X connect 98 0 122 0;
#X connect 99 0 100 1;
#X connect 100 0 125 0;
#X connect 101 0 102 0;
#X connect 102 0 103 0;
#X connect 103 0 123 0;
#X connect 104 0 105 1;
#X connect 105 0 126 0;
#X connect 106 0 33 0;
#X connect 107 0 96 0;
#X connect 108 0 101 0;
#X connect 109 0 42 0;
#X connect 110 0 99 0;
#X connect 111 0 104 0;
#X connect 112 0 135 0;
#X connect 113 0 136 0;
#X connect 114 0 137 0;
#X connect 121 0 43 0;
#X connect 122 0 100 0;
#X connect 123 0 105 0;
#X connect 124 0 36 0;
#X connect 124 1 36 1;
#X connect 125 0 36 0;
#X connect 125 1 36 1;
#X connect 126 0 36 0;
#X connect 126 1 36 1;
#X connect 127 0 116 0;
#X connect 127 0 119 0;
#X connect 127 0 120 0;
#X connect 128 0 131 0;
#X connect 129 0 37 0;
#X connect 131 0 36 0;
#X connect 131 1 36 1;
#X connect 132 0 133 0;
#X connect 133 0 131 1;
#X connect 134 0 124 1;
#X connect 135 0 41 1;
#X connect 136 0 125 1;
#X connect 137 0 126 1;
#X connect 138 0 92 0;
#X connect 139 0 86 0;
#X connect 140 0 84 0;
#X connect 141 0 130 0;
#X connect 142 0 77 0;
#X connect 143 0 90 0;
#X connect 144 0 38 0;
#X connect 151 0 145 0;
#X connect 151 0 146 0;
#X connect 151 0 147 0;
#X connect 151 0 148 0;
#X connect 151 0 149 0;
#X connect 151 0 150 0;
#X connect 152 0 13 0;
#X connect 153 0 152 0;
#X connect 154 0 153 0;
#X connect 155 0 157 0;
#X connect 156 0 13 1;
