#N canvas 807 44 575 570 10;
#X obj 43 175 *~;
#X obj 42 109 osc~ 90;
#X obj 104 177 *~;
#X obj 103 111 osc~ 80;
#X obj 135 165 osc~ 0.4;
#X obj 92 139 osc~ 0.4;
#X obj 57 207 *~ 0.2;
#X obj 52 456 dac~;
#X obj 234 128 noise~;
#X obj 228 81 phasor~ 100.2;
#X obj 220 61 phasor~ 99.8;
#X obj 219 272 *~;
#X obj 234 195 *~;
#X obj 234 169 lop~ 2;
#X obj 234 148 lop~ 2;
#X obj 235 239 *~ 500;
#X obj 219 106 -~ 1;
#X obj 140 299 comb1 80 0.2;
#X obj 140 273 +~ 20;
#X obj 219 217 clip~ -0.5 0.5;
#X obj 141 335 *~ 0.4;
#X obj 196 396 hsl 128 15 0 1 0 0 empty empty empty -2 -8 0 10 -262144
-1 -1 12700 1;
#X obj 55 370 *~;
#X obj 193 343 loadbang;
#X msg 193 370 0;
#X connect 0 0 6 0;
#X connect 1 0 0 0;
#X connect 2 0 6 0;
#X connect 3 0 2 0;
#X connect 4 0 2 1;
#X connect 5 0 0 1;
#X connect 6 0 22 0;
#X connect 8 0 14 0;
#X connect 9 0 16 0;
#X connect 10 0 16 0;
#X connect 11 0 17 1;
#X connect 12 0 15 0;
#X connect 13 0 12 0;
#X connect 13 0 12 1;
#X connect 14 0 13 0;
#X connect 15 0 11 1;
#X connect 15 0 18 0;
#X connect 16 0 19 0;
#X connect 17 0 20 0;
#X connect 18 0 17 0;
#X connect 19 0 11 0;
#X connect 20 0 22 0;
#X connect 21 0 22 1;
#X connect 22 0 7 0;
#X connect 22 0 7 1;
#X connect 23 0 24 0;
#X connect 24 0 21 0;
