#N canvas 695 54 450 441 10;
#X obj 277 226 cos~;
#X obj 314 257 cos~;
#X obj 317 172 hsl 100 15 0 0.25 0 0 empty empty empty -2 -8 0 10 -262144
-1 -1 9900 1;
#X obj 314 226 + 0.75;
#X obj 227 305 *~;
#X obj 300 307 *~;
#X text 438 172 <-- Range: 0-.25;
#X text 77 122 Equal power panning using;
#X text 76 134 curves from [cos~];
#X obj 227 228 *~ 1;
#X obj 227 190 inlet~;
#X obj 314 52 inlet;
#X obj 227 365 outlet~;
#X obj 300 364 outlet~;
#X floatatom 314 85 5 0 0 0 - - -;
#X floatatom 314 141 5 0 0 0 - - -;
#X obj 314 111 / 200;
#X connect 0 0 4 1;
#X connect 1 0 5 1;
#X connect 2 0 0 0;
#X connect 2 0 3 0;
#X connect 3 0 1 0;
#X connect 4 0 12 0;
#X connect 5 0 13 0;
#X connect 9 0 4 0;
#X connect 9 0 5 0;
#X connect 10 0 9 0;
#X connect 11 0 14 0;
#X connect 14 0 16 0;
#X connect 15 0 2 0;
#X connect 16 0 15 0;
